<svg xmlns="http://www.w3.org/2000/svg" width="1080" height="1350" viewBox="0 0 1080 1350">
<defs><linearGradient id="bg4" x1="0" y1="0" x2="0" y2="1"><stop offset="0%" stop-color="#021046"/><stop offset="100%" stop-color="#010A29"/></linearGradient></defs>
<rect width="1080" height="1350" fill="url(#bg4)"/>
<rect x="80" y="92" width="26" height="26" rx="7" fill="#FF671F"/><text x="122" y="113" font-family="'Helvetica Neue',Arial,sans-serif" font-size="27" font-weight="700" letter-spacing="3" fill="#FFFFFF">NETWEBMEDIA</text>
<text x="80" y="210" font-family="'Helvetica Neue',Arial,sans-serif" font-size="28" font-weight="700" letter-spacing="6" fill="#FF671F">OLD WAY VS AI</text>
<text x="78" y="312" font-family="Georgia,serif" font-style="italic" font-weight="700" font-size="86" fill="#FFFFFF">Forms wait.</text>
<text x="78" y="402" font-family="Georgia,serif" font-style="italic" font-weight="700" font-size="86" fill="#FF671F">AI works.</text>
<rect x="80" y="440" width="440" height="700" rx="22" fill="#0A1830"/><text x="120" y="520" font-family="'Helvetica Neue',Arial,sans-serif" font-size="28" font-weight="700" letter-spacing="3" fill="#8499B8">THE OLD FUNNEL</text>
<g font-family="'Helvetica Neue',Arial,sans-serif" font-size="36" fill="#6F84A6"><text x="120" y="640">Form sits for hours.</text><text x="120" y="760">Leads go cold by</text><text x="120" y="806">morning.</text><text x="120" y="920">You chase. They</text><text x="120" y="966">ghost.</text><text x="120" y="1080">Buyers pick a</text><text x="120" y="1126">competitor.</text></g>
<rect x="560" y="440" width="440" height="700" rx="22" fill="#0E2547" stroke="#FF671F" stroke-width="3"/><text x="600" y="520" font-family="'Helvetica Neue',Arial,sans-serif" font-size="28" font-weight="700" letter-spacing="3" fill="#FF671F">WITH AI</text>
<g font-family="'Helvetica Neue',Arial,sans-serif" font-size="36" font-weight="600" fill="#FFFFFF"><text x="600" y="640">Replies in seconds.</text><text x="600" y="760">Follows up on its</text><text x="600" y="806">own.</text><text x="600" y="920">Books while you</text><text x="600" y="966">sleep.</text><text x="600" y="1080">You talk to ready</text><text x="600" y="1126">buyers.</text></g>
<text x="80" y="1300" font-family="'Helvetica Neue',Arial,sans-serif" font-size="28" font-weight="600" letter-spacing="1" fill="#F4F1EA">@netwebmedia</text><text x="1000" y="1300" text-anchor="end" font-family="'Helvetica Neue',Arial,sans-serif" font-size="28" font-weight="600" letter-spacing="1" fill="#FF671F">save for later &#8594;</text><text x="540" y="1300" text-anchor="middle" font-family="'Helvetica Neue',Arial,sans-serif" font-size="22" letter-spacing="3" fill="#5E76A0">04 / 06</text>
</svg>
