<svg xmlns="http://www.w3.org/2000/svg" viewBox="0 0 800 450" width="800" height="450">
  <defs>
    <radialGradient id="bgaiseo" cx="75%" cy="25%" r="65%">
      <stop offset="0%" stop-color="#00b894" stop-opacity="0.35"/>
      <stop offset="100%" stop-color="#010F3B" stop-opacity="0"/>
    </radialGradient>
    <linearGradient id="fadeaiseo" x1="0" y1="0" x2="0" y2="1">
      <stop offset="60%" stop-color="#010F3B" stop-opacity="0"/>
      <stop offset="100%" stop-color="#010F3B" stop-opacity="0.9"/>
    </linearGradient>
  </defs>

  <!-- Base -->
  <rect width="800" height="450" fill="#010F3B"/>
  <rect width="800" height="450" fill="url(#bgaiseo)"/>

  <!-- Topic shapes -->
  <rect x="160" y="280" width="36" height="60" rx="4" fill="#00b894" fill-opacity="0.3"/><rect x="212" y="250" width="36" height="90" rx="4" fill="#00b894" fill-opacity="0.37"/><rect x="264" y="295" width="36" height="45" rx="4" fill="#00b894" fill-opacity="0.44"/><rect x="316" y="265" width="36" height="75" rx="4" fill="#00b894" fill-opacity="0.51"/><rect x="368" y="285" width="36" height="55" rx="4" fill="#00b894" fill-opacity="0.5800000000000001"/><rect x="420" y="255" width="36" height="85" rx="4" fill="#00b894" fill-opacity="0.65"/><rect x="472" y="300" width="36" height="40" rx="4" fill="#00b894" fill-opacity="0.72"/><rect x="524" y="270" width="36" height="70" rx="4" fill="#00b894" fill-opacity="0.79"/><polyline points="160,300 212,270 264,310 316,240 368,280 420,220 472,260 524,200" fill="none" stroke="#00b894" stroke-width="3" stroke-opacity="0.6"/>

  <!-- Bottom fade -->
  <rect width="800" height="450" fill="url(#fadeaiseo)"/>

  <!-- Accent bar -->
  <rect x="0" y="430" width="800" height="4" fill="#00b894" fill-opacity="0.8"/>

  <!-- Dot grid background -->
  <circle cx="35" cy="32" r="1.5" fill="#00b894" fill-opacity="0.06"/><circle cx="35" cy="97" r="1.5" fill="#00b894" fill-opacity="0.06"/><circle cx="35" cy="162" r="1.5" fill="#00b894" fill-opacity="0.06"/><circle cx="35" cy="227" r="1.5" fill="#00b894" fill-opacity="0.06"/><circle cx="35" cy="292" r="1.5" fill="#00b894" fill-opacity="0.06"/><circle cx="35" cy="357" r="1.5" fill="#00b894" fill-opacity="0.06"/><circle cx="35" cy="422" r="1.5" fill="#00b894" fill-opacity="0.06"/><circle cx="105" cy="32" r="1.5" fill="#00b894" fill-opacity="0.06"/><circle cx="105" cy="97" r="1.5" fill="#00b894" fill-opacity="0.06"/><circle cx="105" cy="162" r="1.5" fill="#00b894" fill-opacity="0.06"/><circle cx="105" cy="227" r="1.5" fill="#00b894" fill-opacity="0.06"/><circle cx="105" cy="292" r="1.5" fill="#00b894" fill-opacity="0.06"/><circle cx="105" cy="357" r="1.5" fill="#00b894" fill-opacity="0.06"/><circle cx="105" cy="422" r="1.5" fill="#00b894" fill-opacity="0.06"/><circle cx="175" cy="32" r="1.5" fill="#00b894" fill-opacity="0.06"/><circle cx="175" cy="97" r="1.5" fill="#00b894" fill-opacity="0.06"/><circle cx="175" cy="162" r="1.5" fill="#00b894" fill-opacity="0.06"/><circle cx="175" cy="227" r="1.5" fill="#00b894" fill-opacity="0.06"/><circle cx="175" cy="292" r="1.5" fill="#00b894" fill-opacity="0.06"/><circle cx="175" cy="357" r="1.5" fill="#00b894" fill-opacity="0.06"/><circle cx="175" cy="422" r="1.5" fill="#00b894" fill-opacity="0.06"/><circle cx="245" cy="32" r="1.5" fill="#00b894" fill-opacity="0.06"/><circle cx="245" cy="97" r="1.5" fill="#00b894" fill-opacity="0.06"/><circle cx="245" cy="162" r="1.5" fill="#00b894" fill-opacity="0.06"/><circle cx="245" cy="227" r="1.5" fill="#00b894" fill-opacity="0.06"/><circle cx="245" cy="292" r="1.5" fill="#00b894" fill-opacity="0.06"/><circle cx="245" cy="357" r="1.5" fill="#00b894" fill-opacity="0.06"/><circle cx="245" cy="422" r="1.5" fill="#00b894" fill-opacity="0.06"/><circle cx="315" cy="32" r="1.5" fill="#00b894" fill-opacity="0.06"/><circle cx="315" cy="97" r="1.5" fill="#00b894" fill-opacity="0.06"/><circle cx="315" cy="162" r="1.5" fill="#00b894" fill-opacity="0.06"/><circle cx="315" cy="227" r="1.5" fill="#00b894" fill-opacity="0.06"/><circle cx="315" cy="292" r="1.5" fill="#00b894" fill-opacity="0.06"/><circle cx="315" cy="357" r="1.5" fill="#00b894" fill-opacity="0.06"/><circle cx="315" cy="422" r="1.5" fill="#00b894" fill-opacity="0.06"/><circle cx="385" cy="32" r="1.5" fill="#00b894" fill-opacity="0.06"/><circle cx="385" cy="97" r="1.5" fill="#00b894" fill-opacity="0.06"/><circle cx="385" cy="162" r="1.5" fill="#00b894" fill-opacity="0.06"/><circle cx="385" cy="227" r="1.5" fill="#00b894" fill-opacity="0.06"/><circle cx="385" cy="292" r="1.5" fill="#00b894" fill-opacity="0.06"/><circle cx="385" cy="357" r="1.5" fill="#00b894" fill-opacity="0.06"/><circle cx="385" cy="422" r="1.5" fill="#00b894" fill-opacity="0.06"/><circle cx="455" cy="32" r="1.5" fill="#00b894" fill-opacity="0.06"/><circle cx="455" cy="97" r="1.5" fill="#00b894" fill-opacity="0.06"/><circle cx="455" cy="162" r="1.5" fill="#00b894" fill-opacity="0.06"/><circle cx="455" cy="227" r="1.5" fill="#00b894" fill-opacity="0.06"/><circle cx="455" cy="292" r="1.5" fill="#00b894" fill-opacity="0.06"/><circle cx="455" cy="357" r="1.5" fill="#00b894" fill-opacity="0.06"/><circle cx="455" cy="422" r="1.5" fill="#00b894" fill-opacity="0.06"/><circle cx="525" cy="32" r="1.5" fill="#00b894" fill-opacity="0.06"/><circle cx="525" cy="97" r="1.5" fill="#00b894" fill-opacity="0.06"/><circle cx="525" cy="162" r="1.5" fill="#00b894" fill-opacity="0.06"/><circle cx="525" cy="227" r="1.5" fill="#00b894" fill-opacity="0.06"/><circle cx="525" cy="292" r="1.5" fill="#00b894" fill-opacity="0.06"/><circle cx="525" cy="357" r="1.5" fill="#00b894" fill-opacity="0.06"/><circle cx="525" cy="422" r="1.5" fill="#00b894" fill-opacity="0.06"/><circle cx="595" cy="32" r="1.5" fill="#00b894" fill-opacity="0.06"/><circle cx="595" cy="97" r="1.5" fill="#00b894" fill-opacity="0.06"/><circle cx="595" cy="162" r="1.5" fill="#00b894" fill-opacity="0.06"/><circle cx="595" cy="227" r="1.5" fill="#00b894" fill-opacity="0.06"/><circle cx="595" cy="292" r="1.5" fill="#00b894" fill-opacity="0.06"/><circle cx="595" cy="357" r="1.5" fill="#00b894" fill-opacity="0.06"/><circle cx="595" cy="422" r="1.5" fill="#00b894" fill-opacity="0.06"/><circle cx="665" cy="32" r="1.5" fill="#00b894" fill-opacity="0.06"/><circle cx="665" cy="97" r="1.5" fill="#00b894" fill-opacity="0.06"/><circle cx="665" cy="162" r="1.5" fill="#00b894" fill-opacity="0.06"/><circle cx="665" cy="227" r="1.5" fill="#00b894" fill-opacity="0.06"/><circle cx="665" cy="292" r="1.5" fill="#00b894" fill-opacity="0.06"/><circle cx="665" cy="357" r="1.5" fill="#00b894" fill-opacity="0.06"/><circle cx="665" cy="422" r="1.5" fill="#00b894" fill-opacity="0.06"/><circle cx="735" cy="32" r="1.5" fill="#00b894" fill-opacity="0.06"/><circle cx="735" cy="97" r="1.5" fill="#00b894" fill-opacity="0.06"/><circle cx="735" cy="162" r="1.5" fill="#00b894" fill-opacity="0.06"/><circle cx="735" cy="227" r="1.5" fill="#00b894" fill-opacity="0.06"/><circle cx="735" cy="292" r="1.5" fill="#00b894" fill-opacity="0.06"/><circle cx="735" cy="357" r="1.5" fill="#00b894" fill-opacity="0.06"/><circle cx="735" cy="422" r="1.5" fill="#00b894" fill-opacity="0.06"/><circle cx="805" cy="32" r="1.5" fill="#00b894" fill-opacity="0.06"/><circle cx="805" cy="97" r="1.5" fill="#00b894" fill-opacity="0.06"/><circle cx="805" cy="162" r="1.5" fill="#00b894" fill-opacity="0.06"/><circle cx="805" cy="227" r="1.5" fill="#00b894" fill-opacity="0.06"/><circle cx="805" cy="292" r="1.5" fill="#00b894" fill-opacity="0.06"/><circle cx="805" cy="357" r="1.5" fill="#00b894" fill-opacity="0.06"/><circle cx="805" cy="422" r="1.5" fill="#00b894" fill-opacity="0.06"/>

  <!-- Emoji -->
  <text x="60" y="400" font-size="80" font-family="Apple Color Emoji, Segoe UI Emoji, Noto Color Emoji, serif">🔍</text>

  <!-- Left accent line -->
  <rect x="0" y="0" width="3" height="450" fill="#00b894" fill-opacity="0.5"/>
</svg>