<svg xmlns="http://www.w3.org/2000/svg" viewBox="0 0 800 450" width="800" height="450">
  <defs>
    <radialGradient id="bgchatbotautomation" cx="75%" cy="25%" r="65%">
      <stop offset="0%" stop-color="#22d3ee" stop-opacity="0.35"/>
      <stop offset="100%" stop-color="#010F3B" stop-opacity="0"/>
    </radialGradient>
    <linearGradient id="fadechatbotautomation" x1="0" y1="0" x2="0" y2="1">
      <stop offset="60%" stop-color="#010F3B" stop-opacity="0"/>
      <stop offset="100%" stop-color="#010F3B" stop-opacity="0.9"/>
    </linearGradient>
  </defs>

  <!-- Base -->
  <rect width="800" height="450" fill="#010F3B"/>
  <rect width="800" height="450" fill="url(#bgchatbotautomation)"/>

  <!-- Topic shapes -->
  <line x1="210" y1="205" x2="380" y2="205" stroke="#22d3ee" stroke-width="2" stroke-opacity="0.3" stroke-dasharray="8 4"/><line x1="430" y1="205" x2="600" y2="205" stroke="#22d3ee" stroke-width="2" stroke-opacity="0.3" stroke-dasharray="8 4"/><line x1="210" y1="345" x2="380" y2="345" stroke="#22d3ee" stroke-width="2" stroke-opacity="0.3" stroke-dasharray="8 4"/><line x1="430" y1="345" x2="600" y2="345" stroke="#22d3ee" stroke-width="2" stroke-opacity="0.3" stroke-dasharray="8 4"/><line x1="210" y1="205" x2="160" y2="345" stroke="#22d3ee" stroke-width="2" stroke-opacity="0.3" stroke-dasharray="8 4"/><line x1="430" y1="205" x2="380" y2="345" stroke="#22d3ee" stroke-width="2" stroke-opacity="0.3" stroke-dasharray="8 4"/><line x1="650" y1="205" x2="600" y2="345" stroke="#22d3ee" stroke-width="2" stroke-opacity="0.3" stroke-dasharray="8 4"/><rect x="160" y="180" width="100" height="50" rx="10" fill="#22d3ee" fill-opacity="0.18" stroke="#22d3ee" stroke-width="1.5" stroke-opacity="0.4"/><rect x="380" y="180" width="100" height="50" rx="10" fill="#22d3ee" fill-opacity="0.18" stroke="#22d3ee" stroke-width="1.5" stroke-opacity="0.4"/><rect x="600" y="180" width="100" height="50" rx="10" fill="#22d3ee" fill-opacity="0.18" stroke="#22d3ee" stroke-width="1.5" stroke-opacity="0.4"/><rect x="160" y="320" width="100" height="50" rx="10" fill="#22d3ee" fill-opacity="0.18" stroke="#22d3ee" stroke-width="1.5" stroke-opacity="0.4"/><rect x="380" y="320" width="100" height="50" rx="10" fill="#22d3ee" fill-opacity="0.18" stroke="#22d3ee" stroke-width="1.5" stroke-opacity="0.4"/><rect x="600" y="320" width="100" height="50" rx="10" fill="#22d3ee" fill-opacity="0.18" stroke="#22d3ee" stroke-width="1.5" stroke-opacity="0.4"/>

  <!-- Bottom fade -->
  <rect width="800" height="450" fill="url(#fadechatbotautomation)"/>

  <!-- Accent bar -->
  <rect x="0" y="430" width="800" height="4" fill="#22d3ee" fill-opacity="0.8"/>

  <!-- Dot grid background -->
  <circle cx="35" cy="32" r="1.5" fill="#22d3ee" fill-opacity="0.06"/><circle cx="35" cy="97" r="1.5" fill="#22d3ee" fill-opacity="0.06"/><circle cx="35" cy="162" r="1.5" fill="#22d3ee" fill-opacity="0.06"/><circle cx="35" cy="227" r="1.5" fill="#22d3ee" fill-opacity="0.06"/><circle cx="35" cy="292" r="1.5" fill="#22d3ee" fill-opacity="0.06"/><circle cx="35" cy="357" r="1.5" fill="#22d3ee" fill-opacity="0.06"/><circle cx="35" cy="422" r="1.5" fill="#22d3ee" fill-opacity="0.06"/><circle cx="105" cy="32" r="1.5" fill="#22d3ee" fill-opacity="0.06"/><circle cx="105" cy="97" r="1.5" fill="#22d3ee" fill-opacity="0.06"/><circle cx="105" cy="162" r="1.5" fill="#22d3ee" fill-opacity="0.06"/><circle cx="105" cy="227" r="1.5" fill="#22d3ee" fill-opacity="0.06"/><circle cx="105" cy="292" r="1.5" fill="#22d3ee" fill-opacity="0.06"/><circle cx="105" cy="357" r="1.5" fill="#22d3ee" fill-opacity="0.06"/><circle cx="105" cy="422" r="1.5" fill="#22d3ee" fill-opacity="0.06"/><circle cx="175" cy="32" r="1.5" fill="#22d3ee" fill-opacity="0.06"/><circle cx="175" cy="97" r="1.5" fill="#22d3ee" fill-opacity="0.06"/><circle cx="175" cy="162" r="1.5" fill="#22d3ee" fill-opacity="0.06"/><circle cx="175" cy="227" r="1.5" fill="#22d3ee" fill-opacity="0.06"/><circle cx="175" cy="292" r="1.5" fill="#22d3ee" fill-opacity="0.06"/><circle cx="175" cy="357" r="1.5" fill="#22d3ee" fill-opacity="0.06"/><circle cx="175" cy="422" r="1.5" fill="#22d3ee" fill-opacity="0.06"/><circle cx="245" cy="32" r="1.5" fill="#22d3ee" fill-opacity="0.06"/><circle cx="245" cy="97" r="1.5" fill="#22d3ee" fill-opacity="0.06"/><circle cx="245" cy="162" r="1.5" fill="#22d3ee" fill-opacity="0.06"/><circle cx="245" cy="227" r="1.5" fill="#22d3ee" fill-opacity="0.06"/><circle cx="245" cy="292" r="1.5" fill="#22d3ee" fill-opacity="0.06"/><circle cx="245" cy="357" r="1.5" fill="#22d3ee" fill-opacity="0.06"/><circle cx="245" cy="422" r="1.5" fill="#22d3ee" fill-opacity="0.06"/><circle cx="315" cy="32" r="1.5" fill="#22d3ee" fill-opacity="0.06"/><circle cx="315" cy="97" r="1.5" fill="#22d3ee" fill-opacity="0.06"/><circle cx="315" cy="162" r="1.5" fill="#22d3ee" fill-opacity="0.06"/><circle cx="315" cy="227" r="1.5" fill="#22d3ee" fill-opacity="0.06"/><circle cx="315" cy="292" r="1.5" fill="#22d3ee" fill-opacity="0.06"/><circle cx="315" cy="357" r="1.5" fill="#22d3ee" fill-opacity="0.06"/><circle cx="315" cy="422" r="1.5" fill="#22d3ee" fill-opacity="0.06"/><circle cx="385" cy="32" r="1.5" fill="#22d3ee" fill-opacity="0.06"/><circle cx="385" cy="97" r="1.5" fill="#22d3ee" fill-opacity="0.06"/><circle cx="385" cy="162" r="1.5" fill="#22d3ee" fill-opacity="0.06"/><circle cx="385" cy="227" r="1.5" fill="#22d3ee" fill-opacity="0.06"/><circle cx="385" cy="292" r="1.5" fill="#22d3ee" fill-opacity="0.06"/><circle cx="385" cy="357" r="1.5" fill="#22d3ee" fill-opacity="0.06"/><circle cx="385" cy="422" r="1.5" fill="#22d3ee" fill-opacity="0.06"/><circle cx="455" cy="32" r="1.5" fill="#22d3ee" fill-opacity="0.06"/><circle cx="455" cy="97" r="1.5" fill="#22d3ee" fill-opacity="0.06"/><circle cx="455" cy="162" r="1.5" fill="#22d3ee" fill-opacity="0.06"/><circle cx="455" cy="227" r="1.5" fill="#22d3ee" fill-opacity="0.06"/><circle cx="455" cy="292" r="1.5" fill="#22d3ee" fill-opacity="0.06"/><circle cx="455" cy="357" r="1.5" fill="#22d3ee" fill-opacity="0.06"/><circle cx="455" cy="422" r="1.5" fill="#22d3ee" fill-opacity="0.06"/><circle cx="525" cy="32" r="1.5" fill="#22d3ee" fill-opacity="0.06"/><circle cx="525" cy="97" r="1.5" fill="#22d3ee" fill-opacity="0.06"/><circle cx="525" cy="162" r="1.5" fill="#22d3ee" fill-opacity="0.06"/><circle cx="525" cy="227" r="1.5" fill="#22d3ee" fill-opacity="0.06"/><circle cx="525" cy="292" r="1.5" fill="#22d3ee" fill-opacity="0.06"/><circle cx="525" cy="357" r="1.5" fill="#22d3ee" fill-opacity="0.06"/><circle cx="525" cy="422" r="1.5" fill="#22d3ee" fill-opacity="0.06"/><circle cx="595" cy="32" r="1.5" fill="#22d3ee" fill-opacity="0.06"/><circle cx="595" cy="97" r="1.5" fill="#22d3ee" fill-opacity="0.06"/><circle cx="595" cy="162" r="1.5" fill="#22d3ee" fill-opacity="0.06"/><circle cx="595" cy="227" r="1.5" fill="#22d3ee" fill-opacity="0.06"/><circle cx="595" cy="292" r="1.5" fill="#22d3ee" fill-opacity="0.06"/><circle cx="595" cy="357" r="1.5" fill="#22d3ee" fill-opacity="0.06"/><circle cx="595" cy="422" r="1.5" fill="#22d3ee" fill-opacity="0.06"/><circle cx="665" cy="32" r="1.5" fill="#22d3ee" fill-opacity="0.06"/><circle cx="665" cy="97" r="1.5" fill="#22d3ee" fill-opacity="0.06"/><circle cx="665" cy="162" r="1.5" fill="#22d3ee" fill-opacity="0.06"/><circle cx="665" cy="227" r="1.5" fill="#22d3ee" fill-opacity="0.06"/><circle cx="665" cy="292" r="1.5" fill="#22d3ee" fill-opacity="0.06"/><circle cx="665" cy="357" r="1.5" fill="#22d3ee" fill-opacity="0.06"/><circle cx="665" cy="422" r="1.5" fill="#22d3ee" fill-opacity="0.06"/><circle cx="735" cy="32" r="1.5" fill="#22d3ee" fill-opacity="0.06"/><circle cx="735" cy="97" r="1.5" fill="#22d3ee" fill-opacity="0.06"/><circle cx="735" cy="162" r="1.5" fill="#22d3ee" fill-opacity="0.06"/><circle cx="735" cy="227" r="1.5" fill="#22d3ee" fill-opacity="0.06"/><circle cx="735" cy="292" r="1.5" fill="#22d3ee" fill-opacity="0.06"/><circle cx="735" cy="357" r="1.5" fill="#22d3ee" fill-opacity="0.06"/><circle cx="735" cy="422" r="1.5" fill="#22d3ee" fill-opacity="0.06"/><circle cx="805" cy="32" r="1.5" fill="#22d3ee" fill-opacity="0.06"/><circle cx="805" cy="97" r="1.5" fill="#22d3ee" fill-opacity="0.06"/><circle cx="805" cy="162" r="1.5" fill="#22d3ee" fill-opacity="0.06"/><circle cx="805" cy="227" r="1.5" fill="#22d3ee" fill-opacity="0.06"/><circle cx="805" cy="292" r="1.5" fill="#22d3ee" fill-opacity="0.06"/><circle cx="805" cy="357" r="1.5" fill="#22d3ee" fill-opacity="0.06"/><circle cx="805" cy="422" r="1.5" fill="#22d3ee" fill-opacity="0.06"/>

  <!-- Emoji -->
  <text x="60" y="400" font-size="80" font-family="Apple Color Emoji, Segoe UI Emoji, Noto Color Emoji, serif">🤖</text>

  <!-- Left accent line -->
  <rect x="0" y="0" width="3" height="450" fill="#22d3ee" fill-opacity="0.5"/>
</svg>