<svg xmlns="http://www.w3.org/2000/svg" viewBox="0 0 800 450" width="800" height="450">
  <defs>
    <radialGradient id="bgcreativestudio" cx="75%" cy="25%" r="65%">
      <stop offset="0%" stop-color="#e67e22" stop-opacity="0.35"/>
      <stop offset="100%" stop-color="#010F3B" stop-opacity="0"/>
    </radialGradient>
    <linearGradient id="fadecreativestudio" x1="0" y1="0" x2="0" y2="1">
      <stop offset="60%" stop-color="#010F3B" stop-opacity="0"/>
      <stop offset="100%" stop-color="#010F3B" stop-opacity="0.9"/>
    </linearGradient>
  </defs>

  <!-- Base -->
  <rect width="800" height="450" fill="#010F3B"/>
  <rect width="800" height="450" fill="url(#bgcreativestudio)"/>

  <!-- Topic shapes -->
  <path d="M0,280 C120,220 240,340 360,270 C480,200 600,340 720,260 L720,450 L0,450Z" fill="#e67e22" fill-opacity="0.1"/>
          <path d="M0,320 C140,260 280,370 420,300 C560,230 680,360 800,290 L800,450 L0,450Z" fill="#e67e22" fill-opacity="0.08"/>
          <circle cx="120" cy="180" r="50" fill="#e67e22" fill-opacity="0.15"/>
          <circle cx="400" cy="140" r="65" fill="#e67e22" fill-opacity="0.12"/>
          <circle cx="680" cy="170" r="45" fill="#e67e22" fill-opacity="0.18"/>

  <!-- Bottom fade -->
  <rect width="800" height="450" fill="url(#fadecreativestudio)"/>

  <!-- Accent bar -->
  <rect x="0" y="430" width="800" height="4" fill="#e67e22" fill-opacity="0.8"/>

  <!-- Dot grid background -->
  <circle cx="35" cy="32" r="1.5" fill="#e67e22" fill-opacity="0.06"/><circle cx="35" cy="97" r="1.5" fill="#e67e22" fill-opacity="0.06"/><circle cx="35" cy="162" r="1.5" fill="#e67e22" fill-opacity="0.06"/><circle cx="35" cy="227" r="1.5" fill="#e67e22" fill-opacity="0.06"/><circle cx="35" cy="292" r="1.5" fill="#e67e22" fill-opacity="0.06"/><circle cx="35" cy="357" r="1.5" fill="#e67e22" fill-opacity="0.06"/><circle cx="35" cy="422" r="1.5" fill="#e67e22" fill-opacity="0.06"/><circle cx="105" cy="32" r="1.5" fill="#e67e22" fill-opacity="0.06"/><circle cx="105" cy="97" r="1.5" fill="#e67e22" fill-opacity="0.06"/><circle cx="105" cy="162" r="1.5" fill="#e67e22" fill-opacity="0.06"/><circle cx="105" cy="227" r="1.5" fill="#e67e22" fill-opacity="0.06"/><circle cx="105" cy="292" r="1.5" fill="#e67e22" fill-opacity="0.06"/><circle cx="105" cy="357" r="1.5" fill="#e67e22" fill-opacity="0.06"/><circle cx="105" cy="422" r="1.5" fill="#e67e22" fill-opacity="0.06"/><circle cx="175" cy="32" r="1.5" fill="#e67e22" fill-opacity="0.06"/><circle cx="175" cy="97" r="1.5" fill="#e67e22" fill-opacity="0.06"/><circle cx="175" cy="162" r="1.5" fill="#e67e22" fill-opacity="0.06"/><circle cx="175" cy="227" r="1.5" fill="#e67e22" fill-opacity="0.06"/><circle cx="175" cy="292" r="1.5" fill="#e67e22" fill-opacity="0.06"/><circle cx="175" cy="357" r="1.5" fill="#e67e22" fill-opacity="0.06"/><circle cx="175" cy="422" r="1.5" fill="#e67e22" fill-opacity="0.06"/><circle cx="245" cy="32" r="1.5" fill="#e67e22" fill-opacity="0.06"/><circle cx="245" cy="97" r="1.5" fill="#e67e22" fill-opacity="0.06"/><circle cx="245" cy="162" r="1.5" fill="#e67e22" fill-opacity="0.06"/><circle cx="245" cy="227" r="1.5" fill="#e67e22" fill-opacity="0.06"/><circle cx="245" cy="292" r="1.5" fill="#e67e22" fill-opacity="0.06"/><circle cx="245" cy="357" r="1.5" fill="#e67e22" fill-opacity="0.06"/><circle cx="245" cy="422" r="1.5" fill="#e67e22" fill-opacity="0.06"/><circle cx="315" cy="32" r="1.5" fill="#e67e22" fill-opacity="0.06"/><circle cx="315" cy="97" r="1.5" fill="#e67e22" fill-opacity="0.06"/><circle cx="315" cy="162" r="1.5" fill="#e67e22" fill-opacity="0.06"/><circle cx="315" cy="227" r="1.5" fill="#e67e22" fill-opacity="0.06"/><circle cx="315" cy="292" r="1.5" fill="#e67e22" fill-opacity="0.06"/><circle cx="315" cy="357" r="1.5" fill="#e67e22" fill-opacity="0.06"/><circle cx="315" cy="422" r="1.5" fill="#e67e22" fill-opacity="0.06"/><circle cx="385" cy="32" r="1.5" fill="#e67e22" fill-opacity="0.06"/><circle cx="385" cy="97" r="1.5" fill="#e67e22" fill-opacity="0.06"/><circle cx="385" cy="162" r="1.5" fill="#e67e22" fill-opacity="0.06"/><circle cx="385" cy="227" r="1.5" fill="#e67e22" fill-opacity="0.06"/><circle cx="385" cy="292" r="1.5" fill="#e67e22" fill-opacity="0.06"/><circle cx="385" cy="357" r="1.5" fill="#e67e22" fill-opacity="0.06"/><circle cx="385" cy="422" r="1.5" fill="#e67e22" fill-opacity="0.06"/><circle cx="455" cy="32" r="1.5" fill="#e67e22" fill-opacity="0.06"/><circle cx="455" cy="97" r="1.5" fill="#e67e22" fill-opacity="0.06"/><circle cx="455" cy="162" r="1.5" fill="#e67e22" fill-opacity="0.06"/><circle cx="455" cy="227" r="1.5" fill="#e67e22" fill-opacity="0.06"/><circle cx="455" cy="292" r="1.5" fill="#e67e22" fill-opacity="0.06"/><circle cx="455" cy="357" r="1.5" fill="#e67e22" fill-opacity="0.06"/><circle cx="455" cy="422" r="1.5" fill="#e67e22" fill-opacity="0.06"/><circle cx="525" cy="32" r="1.5" fill="#e67e22" fill-opacity="0.06"/><circle cx="525" cy="97" r="1.5" fill="#e67e22" fill-opacity="0.06"/><circle cx="525" cy="162" r="1.5" fill="#e67e22" fill-opacity="0.06"/><circle cx="525" cy="227" r="1.5" fill="#e67e22" fill-opacity="0.06"/><circle cx="525" cy="292" r="1.5" fill="#e67e22" fill-opacity="0.06"/><circle cx="525" cy="357" r="1.5" fill="#e67e22" fill-opacity="0.06"/><circle cx="525" cy="422" r="1.5" fill="#e67e22" fill-opacity="0.06"/><circle cx="595" cy="32" r="1.5" fill="#e67e22" fill-opacity="0.06"/><circle cx="595" cy="97" r="1.5" fill="#e67e22" fill-opacity="0.06"/><circle cx="595" cy="162" r="1.5" fill="#e67e22" fill-opacity="0.06"/><circle cx="595" cy="227" r="1.5" fill="#e67e22" fill-opacity="0.06"/><circle cx="595" cy="292" r="1.5" fill="#e67e22" fill-opacity="0.06"/><circle cx="595" cy="357" r="1.5" fill="#e67e22" fill-opacity="0.06"/><circle cx="595" cy="422" r="1.5" fill="#e67e22" fill-opacity="0.06"/><circle cx="665" cy="32" r="1.5" fill="#e67e22" fill-opacity="0.06"/><circle cx="665" cy="97" r="1.5" fill="#e67e22" fill-opacity="0.06"/><circle cx="665" cy="162" r="1.5" fill="#e67e22" fill-opacity="0.06"/><circle cx="665" cy="227" r="1.5" fill="#e67e22" fill-opacity="0.06"/><circle cx="665" cy="292" r="1.5" fill="#e67e22" fill-opacity="0.06"/><circle cx="665" cy="357" r="1.5" fill="#e67e22" fill-opacity="0.06"/><circle cx="665" cy="422" r="1.5" fill="#e67e22" fill-opacity="0.06"/><circle cx="735" cy="32" r="1.5" fill="#e67e22" fill-opacity="0.06"/><circle cx="735" cy="97" r="1.5" fill="#e67e22" fill-opacity="0.06"/><circle cx="735" cy="162" r="1.5" fill="#e67e22" fill-opacity="0.06"/><circle cx="735" cy="227" r="1.5" fill="#e67e22" fill-opacity="0.06"/><circle cx="735" cy="292" r="1.5" fill="#e67e22" fill-opacity="0.06"/><circle cx="735" cy="357" r="1.5" fill="#e67e22" fill-opacity="0.06"/><circle cx="735" cy="422" r="1.5" fill="#e67e22" fill-opacity="0.06"/><circle cx="805" cy="32" r="1.5" fill="#e67e22" fill-opacity="0.06"/><circle cx="805" cy="97" r="1.5" fill="#e67e22" fill-opacity="0.06"/><circle cx="805" cy="162" r="1.5" fill="#e67e22" fill-opacity="0.06"/><circle cx="805" cy="227" r="1.5" fill="#e67e22" fill-opacity="0.06"/><circle cx="805" cy="292" r="1.5" fill="#e67e22" fill-opacity="0.06"/><circle cx="805" cy="357" r="1.5" fill="#e67e22" fill-opacity="0.06"/><circle cx="805" cy="422" r="1.5" fill="#e67e22" fill-opacity="0.06"/>

  <!-- Emoji -->
  <text x="60" y="400" font-size="80" font-family="Apple Color Emoji, Segoe UI Emoji, Noto Color Emoji, serif">🎨</text>

  <!-- Left accent line -->
  <rect x="0" y="0" width="3" height="450" fill="#e67e22" fill-opacity="0.5"/>
</svg>