<svg xmlns="http://www.w3.org/2000/svg" viewBox="0 0 800 450" width="800" height="450">
  <defs>
    <radialGradient id="bgcustomerportal" cx="75%" cy="25%" r="65%">
      <stop offset="0%" stop-color="#3498db" stop-opacity="0.35"/>
      <stop offset="100%" stop-color="#010F3B" stop-opacity="0"/>
    </radialGradient>
    <linearGradient id="fadecustomerportal" x1="0" y1="0" x2="0" y2="1">
      <stop offset="60%" stop-color="#010F3B" stop-opacity="0"/>
      <stop offset="100%" stop-color="#010F3B" stop-opacity="0.9"/>
    </linearGradient>
  </defs>

  <!-- Base -->
  <rect width="800" height="450" fill="#010F3B"/>
  <rect width="800" height="450" fill="url(#bgcustomerportal)"/>

  <!-- Topic shapes -->
  <rect x="160" y="100" width="110" height="80" rx="8" fill="#3498db" fill-opacity="0.14943483754631437" stroke="#3498db" stroke-width="1" stroke-opacity="0.25"/><rect x="170" y="110" width="78.86341831330188" height="6" rx="3" fill="#3498db" fill-opacity="0.4"/><rect x="170" y="126" width="71.33739049306241" height="4" rx="2" fill="#3498db" fill-opacity="0.2"/><rect x="160" y="210" width="110" height="80" rx="8" fill="#3498db" fill-opacity="0.2183826738054273" stroke="#3498db" stroke-width="1" stroke-opacity="0.25"/><rect x="170" y="220" width="73.15880754740557" height="6" rx="3" fill="#3498db" fill-opacity="0.4"/><rect x="170" y="236" width="37.62904687402425" height="4" rx="2" fill="#3498db" fill-opacity="0.2"/><rect x="160" y="320" width="110" height="80" rx="8" fill="#3498db" fill-opacity="0.1893545005539995" stroke="#3498db" stroke-width="1" stroke-opacity="0.25"/><rect x="170" y="330" width="73.57946001599876" height="6" rx="3" fill="#3498db" fill-opacity="0.4"/><rect x="170" y="346" width="28.138331934792276" height="4" rx="2" fill="#3498db" fill-opacity="0.2"/><rect x="300" y="100" width="110" height="80" rx="8" fill="#3498db" fill-opacity="0.1279683765870763" stroke="#3498db" stroke-width="1" stroke-opacity="0.25"/><rect x="310" y="110" width="57.32165977393622" height="6" rx="3" fill="#3498db" fill-opacity="0.4"/><rect x="310" y="126" width="79.36562918026192" height="4" rx="2" fill="#3498db" fill-opacity="0.2"/><rect x="300" y="210" width="110" height="80" rx="8" fill="#3498db" fill-opacity="0.21293200366509263" stroke="#3498db" stroke-width="1" stroke-opacity="0.25"/><rect x="310" y="220" width="58.73617364600344" height="6" rx="3" fill="#3498db" fill-opacity="0.4"/><rect x="310" y="236" width="45.50868724044055" height="4" rx="2" fill="#3498db" fill-opacity="0.2"/><rect x="300" y="320" width="110" height="80" rx="8" fill="#3498db" fill-opacity="0.2125646420466743" stroke="#3498db" stroke-width="1" stroke-opacity="0.25"/><rect x="310" y="330" width="79.5538639466522" height="6" rx="3" fill="#3498db" fill-opacity="0.4"/><rect x="310" y="346" width="52.49929385679406" height="4" rx="2" fill="#3498db" fill-opacity="0.2"/><rect x="440" y="100" width="110" height="80" rx="8" fill="#3498db" fill-opacity="0.13414032372409973" stroke="#3498db" stroke-width="1" stroke-opacity="0.25"/><rect x="450" y="110" width="51.33422326437059" height="6" rx="3" fill="#3498db" fill-opacity="0.4"/><rect x="450" y="126" width="26.903756768443262" height="4" rx="2" fill="#3498db" fill-opacity="0.2"/><rect x="440" y="210" width="110" height="80" rx="8" fill="#3498db" fill-opacity="0.15208231233941114" stroke="#3498db" stroke-width="1" stroke-opacity="0.25"/><rect x="450" y="220" width="68.60815033800259" height="6" rx="3" fill="#3498db" fill-opacity="0.4"/><rect x="450" y="236" width="49.42403027981781" height="4" rx="2" fill="#3498db" fill-opacity="0.2"/><rect x="440" y="320" width="110" height="80" rx="8" fill="#3498db" fill-opacity="0.12313740682707935" stroke="#3498db" stroke-width="1" stroke-opacity="0.25"/><rect x="450" y="330" width="76.49772934783678" height="6" rx="3" fill="#3498db" fill-opacity="0.4"/><rect x="450" y="346" width="38.04455526298017" height="4" rx="2" fill="#3498db" fill-opacity="0.2"/><rect x="580" y="100" width="110" height="80" rx="8" fill="#3498db" fill-opacity="0.13657832335186088" stroke="#3498db" stroke-width="1" stroke-opacity="0.25"/><rect x="590" y="110" width="70.45050927318592" height="6" rx="3" fill="#3498db" fill-opacity="0.4"/><rect x="590" y="126" width="21.48198794807311" height="4" rx="2" fill="#3498db" fill-opacity="0.2"/><rect x="580" y="210" width="110" height="80" rx="8" fill="#3498db" fill-opacity="0.1650655665217579" stroke="#3498db" stroke-width="1" stroke-opacity="0.25"/><rect x="590" y="220" width="75.72868141618272" height="6" rx="3" fill="#3498db" fill-opacity="0.4"/><rect x="590" y="236" width="33.78623015656679" height="4" rx="2" fill="#3498db" fill-opacity="0.2"/><rect x="580" y="320" width="110" height="80" rx="8" fill="#3498db" fill-opacity="0.12595768472337632" stroke="#3498db" stroke-width="1" stroke-opacity="0.25"/><rect x="590" y="330" width="67.81244524620979" height="6" rx="3" fill="#3498db" fill-opacity="0.4"/><rect x="590" y="346" width="22.918999422203427" height="4" rx="2" fill="#3498db" fill-opacity="0.2"/>

  <!-- Bottom fade -->
  <rect width="800" height="450" fill="url(#fadecustomerportal)"/>

  <!-- Accent bar -->
  <rect x="0" y="430" width="800" height="4" fill="#3498db" fill-opacity="0.8"/>

  <!-- Dot grid background -->
  <circle cx="35" cy="32" r="1.5" fill="#3498db" fill-opacity="0.06"/><circle cx="35" cy="97" r="1.5" fill="#3498db" fill-opacity="0.06"/><circle cx="35" cy="162" r="1.5" fill="#3498db" fill-opacity="0.06"/><circle cx="35" cy="227" r="1.5" fill="#3498db" fill-opacity="0.06"/><circle cx="35" cy="292" r="1.5" fill="#3498db" fill-opacity="0.06"/><circle cx="35" cy="357" r="1.5" fill="#3498db" fill-opacity="0.06"/><circle cx="35" cy="422" r="1.5" fill="#3498db" fill-opacity="0.06"/><circle cx="105" cy="32" r="1.5" fill="#3498db" fill-opacity="0.06"/><circle cx="105" cy="97" r="1.5" fill="#3498db" fill-opacity="0.06"/><circle cx="105" cy="162" r="1.5" fill="#3498db" fill-opacity="0.06"/><circle cx="105" cy="227" r="1.5" fill="#3498db" fill-opacity="0.06"/><circle cx="105" cy="292" r="1.5" fill="#3498db" fill-opacity="0.06"/><circle cx="105" cy="357" r="1.5" fill="#3498db" fill-opacity="0.06"/><circle cx="105" cy="422" r="1.5" fill="#3498db" fill-opacity="0.06"/><circle cx="175" cy="32" r="1.5" fill="#3498db" fill-opacity="0.06"/><circle cx="175" cy="97" r="1.5" fill="#3498db" fill-opacity="0.06"/><circle cx="175" cy="162" r="1.5" fill="#3498db" fill-opacity="0.06"/><circle cx="175" cy="227" r="1.5" fill="#3498db" fill-opacity="0.06"/><circle cx="175" cy="292" r="1.5" fill="#3498db" fill-opacity="0.06"/><circle cx="175" cy="357" r="1.5" fill="#3498db" fill-opacity="0.06"/><circle cx="175" cy="422" r="1.5" fill="#3498db" fill-opacity="0.06"/><circle cx="245" cy="32" r="1.5" fill="#3498db" fill-opacity="0.06"/><circle cx="245" cy="97" r="1.5" fill="#3498db" fill-opacity="0.06"/><circle cx="245" cy="162" r="1.5" fill="#3498db" fill-opacity="0.06"/><circle cx="245" cy="227" r="1.5" fill="#3498db" fill-opacity="0.06"/><circle cx="245" cy="292" r="1.5" fill="#3498db" fill-opacity="0.06"/><circle cx="245" cy="357" r="1.5" fill="#3498db" fill-opacity="0.06"/><circle cx="245" cy="422" r="1.5" fill="#3498db" fill-opacity="0.06"/><circle cx="315" cy="32" r="1.5" fill="#3498db" fill-opacity="0.06"/><circle cx="315" cy="97" r="1.5" fill="#3498db" fill-opacity="0.06"/><circle cx="315" cy="162" r="1.5" fill="#3498db" fill-opacity="0.06"/><circle cx="315" cy="227" r="1.5" fill="#3498db" fill-opacity="0.06"/><circle cx="315" cy="292" r="1.5" fill="#3498db" fill-opacity="0.06"/><circle cx="315" cy="357" r="1.5" fill="#3498db" fill-opacity="0.06"/><circle cx="315" cy="422" r="1.5" fill="#3498db" fill-opacity="0.06"/><circle cx="385" cy="32" r="1.5" fill="#3498db" fill-opacity="0.06"/><circle cx="385" cy="97" r="1.5" fill="#3498db" fill-opacity="0.06"/><circle cx="385" cy="162" r="1.5" fill="#3498db" fill-opacity="0.06"/><circle cx="385" cy="227" r="1.5" fill="#3498db" fill-opacity="0.06"/><circle cx="385" cy="292" r="1.5" fill="#3498db" fill-opacity="0.06"/><circle cx="385" cy="357" r="1.5" fill="#3498db" fill-opacity="0.06"/><circle cx="385" cy="422" r="1.5" fill="#3498db" fill-opacity="0.06"/><circle cx="455" cy="32" r="1.5" fill="#3498db" fill-opacity="0.06"/><circle cx="455" cy="97" r="1.5" fill="#3498db" fill-opacity="0.06"/><circle cx="455" cy="162" r="1.5" fill="#3498db" fill-opacity="0.06"/><circle cx="455" cy="227" r="1.5" fill="#3498db" fill-opacity="0.06"/><circle cx="455" cy="292" r="1.5" fill="#3498db" fill-opacity="0.06"/><circle cx="455" cy="357" r="1.5" fill="#3498db" fill-opacity="0.06"/><circle cx="455" cy="422" r="1.5" fill="#3498db" fill-opacity="0.06"/><circle cx="525" cy="32" r="1.5" fill="#3498db" fill-opacity="0.06"/><circle cx="525" cy="97" r="1.5" fill="#3498db" fill-opacity="0.06"/><circle cx="525" cy="162" r="1.5" fill="#3498db" fill-opacity="0.06"/><circle cx="525" cy="227" r="1.5" fill="#3498db" fill-opacity="0.06"/><circle cx="525" cy="292" r="1.5" fill="#3498db" fill-opacity="0.06"/><circle cx="525" cy="357" r="1.5" fill="#3498db" fill-opacity="0.06"/><circle cx="525" cy="422" r="1.5" fill="#3498db" fill-opacity="0.06"/><circle cx="595" cy="32" r="1.5" fill="#3498db" fill-opacity="0.06"/><circle cx="595" cy="97" r="1.5" fill="#3498db" fill-opacity="0.06"/><circle cx="595" cy="162" r="1.5" fill="#3498db" fill-opacity="0.06"/><circle cx="595" cy="227" r="1.5" fill="#3498db" fill-opacity="0.06"/><circle cx="595" cy="292" r="1.5" fill="#3498db" fill-opacity="0.06"/><circle cx="595" cy="357" r="1.5" fill="#3498db" fill-opacity="0.06"/><circle cx="595" cy="422" r="1.5" fill="#3498db" fill-opacity="0.06"/><circle cx="665" cy="32" r="1.5" fill="#3498db" fill-opacity="0.06"/><circle cx="665" cy="97" r="1.5" fill="#3498db" fill-opacity="0.06"/><circle cx="665" cy="162" r="1.5" fill="#3498db" fill-opacity="0.06"/><circle cx="665" cy="227" r="1.5" fill="#3498db" fill-opacity="0.06"/><circle cx="665" cy="292" r="1.5" fill="#3498db" fill-opacity="0.06"/><circle cx="665" cy="357" r="1.5" fill="#3498db" fill-opacity="0.06"/><circle cx="665" cy="422" r="1.5" fill="#3498db" fill-opacity="0.06"/><circle cx="735" cy="32" r="1.5" fill="#3498db" fill-opacity="0.06"/><circle cx="735" cy="97" r="1.5" fill="#3498db" fill-opacity="0.06"/><circle cx="735" cy="162" r="1.5" fill="#3498db" fill-opacity="0.06"/><circle cx="735" cy="227" r="1.5" fill="#3498db" fill-opacity="0.06"/><circle cx="735" cy="292" r="1.5" fill="#3498db" fill-opacity="0.06"/><circle cx="735" cy="357" r="1.5" fill="#3498db" fill-opacity="0.06"/><circle cx="735" cy="422" r="1.5" fill="#3498db" fill-opacity="0.06"/><circle cx="805" cy="32" r="1.5" fill="#3498db" fill-opacity="0.06"/><circle cx="805" cy="97" r="1.5" fill="#3498db" fill-opacity="0.06"/><circle cx="805" cy="162" r="1.5" fill="#3498db" fill-opacity="0.06"/><circle cx="805" cy="227" r="1.5" fill="#3498db" fill-opacity="0.06"/><circle cx="805" cy="292" r="1.5" fill="#3498db" fill-opacity="0.06"/><circle cx="805" cy="357" r="1.5" fill="#3498db" fill-opacity="0.06"/><circle cx="805" cy="422" r="1.5" fill="#3498db" fill-opacity="0.06"/>

  <!-- Emoji -->
  <text x="60" y="400" font-size="80" font-family="Apple Color Emoji, Segoe UI Emoji, Noto Color Emoji, serif">🏛️</text>

  <!-- Left accent line -->
  <rect x="0" y="0" width="3" height="450" fill="#3498db" fill-opacity="0.5"/>
</svg>