<svg xmlns="http://www.w3.org/2000/svg" viewBox="0 0 800 450" width="800" height="450">
  <defs>
    <radialGradient id="bgfractionalcmo" cx="75%" cy="25%" r="65%">
      <stop offset="0%" stop-color="#d63031" stop-opacity="0.35"/>
      <stop offset="100%" stop-color="#010F3B" stop-opacity="0"/>
    </radialGradient>
    <linearGradient id="fadefractionalcmo" x1="0" y1="0" x2="0" y2="1">
      <stop offset="60%" stop-color="#010F3B" stop-opacity="0"/>
      <stop offset="100%" stop-color="#010F3B" stop-opacity="0.9"/>
    </linearGradient>
  </defs>

  <!-- Base -->
  <rect width="800" height="450" fill="#010F3B"/>
  <rect width="800" height="450" fill="url(#bgfractionalcmo)"/>

  <!-- Topic shapes -->
  <line x1="200" y1="150" x2="400" y2="100" stroke="#d63031" stroke-width="2" stroke-opacity="0.3"/><line x1="400" y1="100" x2="600" y2="160" stroke="#d63031" stroke-width="2" stroke-opacity="0.3"/><line x1="200" y1="150" x2="300" y2="280" stroke="#d63031" stroke-width="2" stroke-opacity="0.3"/><line x1="400" y1="100" x2="300" y2="280" stroke="#d63031" stroke-width="2" stroke-opacity="0.3"/><line x1="400" y1="100" x2="500" y2="260" stroke="#d63031" stroke-width="2" stroke-opacity="0.3"/><line x1="600" y1="160" x2="500" y2="260" stroke="#d63031" stroke-width="2" stroke-opacity="0.3"/><line x1="300" y1="280" x2="200" y2="350" stroke="#d63031" stroke-width="2" stroke-opacity="0.3"/><line x1="500" y1="260" x2="650" y2="320" stroke="#d63031" stroke-width="2" stroke-opacity="0.3"/><circle cx="200" cy="150" r="12" fill="#d63031" fill-opacity="0.35"/><circle cx="400" cy="100" r="18" fill="#d63031" fill-opacity="0.6"/><circle cx="600" cy="160" r="12" fill="#d63031" fill-opacity="0.35"/><circle cx="300" cy="280" r="12" fill="#d63031" fill-opacity="0.35"/><circle cx="500" cy="260" r="12" fill="#d63031" fill-opacity="0.35"/><circle cx="200" cy="350" r="12" fill="#d63031" fill-opacity="0.35"/><circle cx="650" cy="320" r="12" fill="#d63031" fill-opacity="0.35"/>

  <!-- Bottom fade -->
  <rect width="800" height="450" fill="url(#fadefractionalcmo)"/>

  <!-- Accent bar -->
  <rect x="0" y="430" width="800" height="4" fill="#d63031" fill-opacity="0.8"/>

  <!-- Dot grid background -->
  <circle cx="35" cy="32" r="1.5" fill="#d63031" fill-opacity="0.06"/><circle cx="35" cy="97" r="1.5" fill="#d63031" fill-opacity="0.06"/><circle cx="35" cy="162" r="1.5" fill="#d63031" fill-opacity="0.06"/><circle cx="35" cy="227" r="1.5" fill="#d63031" fill-opacity="0.06"/><circle cx="35" cy="292" r="1.5" fill="#d63031" fill-opacity="0.06"/><circle cx="35" cy="357" r="1.5" fill="#d63031" fill-opacity="0.06"/><circle cx="35" cy="422" r="1.5" fill="#d63031" fill-opacity="0.06"/><circle cx="105" cy="32" r="1.5" fill="#d63031" fill-opacity="0.06"/><circle cx="105" cy="97" r="1.5" fill="#d63031" fill-opacity="0.06"/><circle cx="105" cy="162" r="1.5" fill="#d63031" fill-opacity="0.06"/><circle cx="105" cy="227" r="1.5" fill="#d63031" fill-opacity="0.06"/><circle cx="105" cy="292" r="1.5" fill="#d63031" fill-opacity="0.06"/><circle cx="105" cy="357" r="1.5" fill="#d63031" fill-opacity="0.06"/><circle cx="105" cy="422" r="1.5" fill="#d63031" fill-opacity="0.06"/><circle cx="175" cy="32" r="1.5" fill="#d63031" fill-opacity="0.06"/><circle cx="175" cy="97" r="1.5" fill="#d63031" fill-opacity="0.06"/><circle cx="175" cy="162" r="1.5" fill="#d63031" fill-opacity="0.06"/><circle cx="175" cy="227" r="1.5" fill="#d63031" fill-opacity="0.06"/><circle cx="175" cy="292" r="1.5" fill="#d63031" fill-opacity="0.06"/><circle cx="175" cy="357" r="1.5" fill="#d63031" fill-opacity="0.06"/><circle cx="175" cy="422" r="1.5" fill="#d63031" fill-opacity="0.06"/><circle cx="245" cy="32" r="1.5" fill="#d63031" fill-opacity="0.06"/><circle cx="245" cy="97" r="1.5" fill="#d63031" fill-opacity="0.06"/><circle cx="245" cy="162" r="1.5" fill="#d63031" fill-opacity="0.06"/><circle cx="245" cy="227" r="1.5" fill="#d63031" fill-opacity="0.06"/><circle cx="245" cy="292" r="1.5" fill="#d63031" fill-opacity="0.06"/><circle cx="245" cy="357" r="1.5" fill="#d63031" fill-opacity="0.06"/><circle cx="245" cy="422" r="1.5" fill="#d63031" fill-opacity="0.06"/><circle cx="315" cy="32" r="1.5" fill="#d63031" fill-opacity="0.06"/><circle cx="315" cy="97" r="1.5" fill="#d63031" fill-opacity="0.06"/><circle cx="315" cy="162" r="1.5" fill="#d63031" fill-opacity="0.06"/><circle cx="315" cy="227" r="1.5" fill="#d63031" fill-opacity="0.06"/><circle cx="315" cy="292" r="1.5" fill="#d63031" fill-opacity="0.06"/><circle cx="315" cy="357" r="1.5" fill="#d63031" fill-opacity="0.06"/><circle cx="315" cy="422" r="1.5" fill="#d63031" fill-opacity="0.06"/><circle cx="385" cy="32" r="1.5" fill="#d63031" fill-opacity="0.06"/><circle cx="385" cy="97" r="1.5" fill="#d63031" fill-opacity="0.06"/><circle cx="385" cy="162" r="1.5" fill="#d63031" fill-opacity="0.06"/><circle cx="385" cy="227" r="1.5" fill="#d63031" fill-opacity="0.06"/><circle cx="385" cy="292" r="1.5" fill="#d63031" fill-opacity="0.06"/><circle cx="385" cy="357" r="1.5" fill="#d63031" fill-opacity="0.06"/><circle cx="385" cy="422" r="1.5" fill="#d63031" fill-opacity="0.06"/><circle cx="455" cy="32" r="1.5" fill="#d63031" fill-opacity="0.06"/><circle cx="455" cy="97" r="1.5" fill="#d63031" fill-opacity="0.06"/><circle cx="455" cy="162" r="1.5" fill="#d63031" fill-opacity="0.06"/><circle cx="455" cy="227" r="1.5" fill="#d63031" fill-opacity="0.06"/><circle cx="455" cy="292" r="1.5" fill="#d63031" fill-opacity="0.06"/><circle cx="455" cy="357" r="1.5" fill="#d63031" fill-opacity="0.06"/><circle cx="455" cy="422" r="1.5" fill="#d63031" fill-opacity="0.06"/><circle cx="525" cy="32" r="1.5" fill="#d63031" fill-opacity="0.06"/><circle cx="525" cy="97" r="1.5" fill="#d63031" fill-opacity="0.06"/><circle cx="525" cy="162" r="1.5" fill="#d63031" fill-opacity="0.06"/><circle cx="525" cy="227" r="1.5" fill="#d63031" fill-opacity="0.06"/><circle cx="525" cy="292" r="1.5" fill="#d63031" fill-opacity="0.06"/><circle cx="525" cy="357" r="1.5" fill="#d63031" fill-opacity="0.06"/><circle cx="525" cy="422" r="1.5" fill="#d63031" fill-opacity="0.06"/><circle cx="595" cy="32" r="1.5" fill="#d63031" fill-opacity="0.06"/><circle cx="595" cy="97" r="1.5" fill="#d63031" fill-opacity="0.06"/><circle cx="595" cy="162" r="1.5" fill="#d63031" fill-opacity="0.06"/><circle cx="595" cy="227" r="1.5" fill="#d63031" fill-opacity="0.06"/><circle cx="595" cy="292" r="1.5" fill="#d63031" fill-opacity="0.06"/><circle cx="595" cy="357" r="1.5" fill="#d63031" fill-opacity="0.06"/><circle cx="595" cy="422" r="1.5" fill="#d63031" fill-opacity="0.06"/><circle cx="665" cy="32" r="1.5" fill="#d63031" fill-opacity="0.06"/><circle cx="665" cy="97" r="1.5" fill="#d63031" fill-opacity="0.06"/><circle cx="665" cy="162" r="1.5" fill="#d63031" fill-opacity="0.06"/><circle cx="665" cy="227" r="1.5" fill="#d63031" fill-opacity="0.06"/><circle cx="665" cy="292" r="1.5" fill="#d63031" fill-opacity="0.06"/><circle cx="665" cy="357" r="1.5" fill="#d63031" fill-opacity="0.06"/><circle cx="665" cy="422" r="1.5" fill="#d63031" fill-opacity="0.06"/><circle cx="735" cy="32" r="1.5" fill="#d63031" fill-opacity="0.06"/><circle cx="735" cy="97" r="1.5" fill="#d63031" fill-opacity="0.06"/><circle cx="735" cy="162" r="1.5" fill="#d63031" fill-opacity="0.06"/><circle cx="735" cy="227" r="1.5" fill="#d63031" fill-opacity="0.06"/><circle cx="735" cy="292" r="1.5" fill="#d63031" fill-opacity="0.06"/><circle cx="735" cy="357" r="1.5" fill="#d63031" fill-opacity="0.06"/><circle cx="735" cy="422" r="1.5" fill="#d63031" fill-opacity="0.06"/><circle cx="805" cy="32" r="1.5" fill="#d63031" fill-opacity="0.06"/><circle cx="805" cy="97" r="1.5" fill="#d63031" fill-opacity="0.06"/><circle cx="805" cy="162" r="1.5" fill="#d63031" fill-opacity="0.06"/><circle cx="805" cy="227" r="1.5" fill="#d63031" fill-opacity="0.06"/><circle cx="805" cy="292" r="1.5" fill="#d63031" fill-opacity="0.06"/><circle cx="805" cy="357" r="1.5" fill="#d63031" fill-opacity="0.06"/><circle cx="805" cy="422" r="1.5" fill="#d63031" fill-opacity="0.06"/>

  <!-- Emoji -->
  <text x="60" y="400" font-size="80" font-family="Apple Color Emoji, Segoe UI Emoji, Noto Color Emoji, serif">🧠</text>

  <!-- Left accent line -->
  <rect x="0" y="0" width="3" height="450" fill="#d63031" fill-opacity="0.5"/>
</svg>