<svg xmlns="http://www.w3.org/2000/svg" viewBox="0 0 800 450" width="800" height="450">
  <defs>
    <radialGradient id="bgheadlesscommerce" cx="75%" cy="25%" r="65%">
      <stop offset="0%" stop-color="#2980b9" stop-opacity="0.35"/>
      <stop offset="100%" stop-color="#010F3B" stop-opacity="0"/>
    </radialGradient>
    <linearGradient id="fadeheadlesscommerce" x1="0" y1="0" x2="0" y2="1">
      <stop offset="60%" stop-color="#010F3B" stop-opacity="0"/>
      <stop offset="100%" stop-color="#010F3B" stop-opacity="0.9"/>
    </linearGradient>
  </defs>

  <!-- Base -->
  <rect width="800" height="450" fill="#010F3B"/>
  <rect width="800" height="450" fill="url(#bgheadlesscommerce)"/>

  <!-- Topic shapes -->
  <rect x="160" y="100" width="110" height="80" rx="8" fill="#2980b9" fill-opacity="0.13240657106253537" stroke="#2980b9" stroke-width="1" stroke-opacity="0.25"/><rect x="170" y="110" width="72.32946031562412" height="6" rx="3" fill="#2980b9" fill-opacity="0.4"/><rect x="170" y="126" width="47.6870178164566" height="4" rx="2" fill="#2980b9" fill-opacity="0.2"/><rect x="160" y="210" width="110" height="80" rx="8" fill="#2980b9" fill-opacity="0.15340715082829645" stroke="#2980b9" stroke-width="1" stroke-opacity="0.25"/><rect x="170" y="220" width="68.69818009546364" height="6" rx="3" fill="#2980b9" fill-opacity="0.4"/><rect x="170" y="236" width="73.33798651789883" height="4" rx="2" fill="#2980b9" fill-opacity="0.2"/><rect x="160" y="320" width="110" height="80" rx="8" fill="#2980b9" fill-opacity="0.13112805941459071" stroke="#2980b9" stroke-width="1" stroke-opacity="0.25"/><rect x="170" y="330" width="47.15842161789873" height="6" rx="3" fill="#2980b9" fill-opacity="0.4"/><rect x="170" y="346" width="74.72407231535541" height="4" rx="2" fill="#2980b9" fill-opacity="0.2"/><rect x="300" y="100" width="110" height="80" rx="8" fill="#2980b9" fill-opacity="0.21188598616003115" stroke="#2980b9" stroke-width="1" stroke-opacity="0.25"/><rect x="310" y="110" width="73.91506126683886" height="6" rx="3" fill="#2980b9" fill-opacity="0.4"/><rect x="310" y="126" width="59.11680398937332" height="4" rx="2" fill="#2980b9" fill-opacity="0.2"/><rect x="300" y="210" width="110" height="80" rx="8" fill="#2980b9" fill-opacity="0.15199329590653057" stroke="#2980b9" stroke-width="1" stroke-opacity="0.25"/><rect x="310" y="220" width="76.47315082018305" height="6" rx="3" fill="#2980b9" fill-opacity="0.4"/><rect x="310" y="236" width="44.54083786110618" height="4" rx="2" fill="#2980b9" fill-opacity="0.2"/><rect x="300" y="320" width="110" height="80" rx="8" fill="#2980b9" fill-opacity="0.20795432303763964" stroke="#2980b9" stroke-width="1" stroke-opacity="0.25"/><rect x="310" y="330" width="53.03347041763576" height="6" rx="3" fill="#2980b9" fill-opacity="0.4"/><rect x="310" y="346" width="74.72627179423438" height="4" rx="2" fill="#2980b9" fill-opacity="0.2"/><rect x="440" y="100" width="110" height="80" rx="8" fill="#2980b9" fill-opacity="0.146791119505681" stroke="#2980b9" stroke-width="1" stroke-opacity="0.25"/><rect x="450" y="110" width="47.5236969776576" height="6" rx="3" fill="#2980b9" fill-opacity="0.4"/><rect x="450" y="126" width="65.54641757829131" height="4" rx="2" fill="#2980b9" fill-opacity="0.2"/><rect x="440" y="210" width="110" height="80" rx="8" fill="#2980b9" fill-opacity="0.14570784928932015" stroke="#2980b9" stroke-width="1" stroke-opacity="0.25"/><rect x="450" y="220" width="47.89950700636743" height="6" rx="3" fill="#2980b9" fill-opacity="0.4"/><rect x="450" y="236" width="26.636245969770066" height="4" rx="2" fill="#2980b9" fill-opacity="0.2"/><rect x="440" y="320" width="110" height="80" rx="8" fill="#2980b9" fill-opacity="0.21170047958009872" stroke="#2980b9" stroke-width="1" stroke-opacity="0.25"/><rect x="450" y="330" width="54.75002126697616" height="6" rx="3" fill="#2980b9" fill-opacity="0.4"/><rect x="450" y="346" width="64.26918768169082" height="4" rx="2" fill="#2980b9" fill-opacity="0.2"/><rect x="580" y="100" width="110" height="80" rx="8" fill="#2980b9" fill-opacity="0.1823790799274707" stroke="#2980b9" stroke-width="1" stroke-opacity="0.25"/><rect x="590" y="110" width="40.58405460658638" height="6" rx="3" fill="#2980b9" fill-opacity="0.4"/><rect x="590" y="126" width="31.82330380641469" height="4" rx="2" fill="#2980b9" fill-opacity="0.2"/><rect x="580" y="210" width="110" height="80" rx="8" fill="#2980b9" fill-opacity="0.1477051265879131" stroke="#2980b9" stroke-width="1" stroke-opacity="0.25"/><rect x="590" y="220" width="49.59075588730329" height="6" rx="3" fill="#2980b9" fill-opacity="0.4"/><rect x="590" y="236" width="79.58768026032405" height="4" rx="2" fill="#2980b9" fill-opacity="0.2"/><rect x="580" y="320" width="110" height="80" rx="8" fill="#2980b9" fill-opacity="0.144573695552705" stroke="#2980b9" stroke-width="1" stroke-opacity="0.25"/><rect x="590" y="330" width="52.6483085780375" height="6" rx="3" fill="#2980b9" fill-opacity="0.4"/><rect x="590" y="346" width="33.293437995345165" height="4" rx="2" fill="#2980b9" fill-opacity="0.2"/>

  <!-- Bottom fade -->
  <rect width="800" height="450" fill="url(#fadeheadlesscommerce)"/>

  <!-- Accent bar -->
  <rect x="0" y="430" width="800" height="4" fill="#2980b9" fill-opacity="0.8"/>

  <!-- Dot grid background -->
  <circle cx="35" cy="32" r="1.5" fill="#2980b9" fill-opacity="0.06"/><circle cx="35" cy="97" r="1.5" fill="#2980b9" fill-opacity="0.06"/><circle cx="35" cy="162" r="1.5" fill="#2980b9" fill-opacity="0.06"/><circle cx="35" cy="227" r="1.5" fill="#2980b9" fill-opacity="0.06"/><circle cx="35" cy="292" r="1.5" fill="#2980b9" fill-opacity="0.06"/><circle cx="35" cy="357" r="1.5" fill="#2980b9" fill-opacity="0.06"/><circle cx="35" cy="422" r="1.5" fill="#2980b9" fill-opacity="0.06"/><circle cx="105" cy="32" r="1.5" fill="#2980b9" fill-opacity="0.06"/><circle cx="105" cy="97" r="1.5" fill="#2980b9" fill-opacity="0.06"/><circle cx="105" cy="162" r="1.5" fill="#2980b9" fill-opacity="0.06"/><circle cx="105" cy="227" r="1.5" fill="#2980b9" fill-opacity="0.06"/><circle cx="105" cy="292" r="1.5" fill="#2980b9" fill-opacity="0.06"/><circle cx="105" cy="357" r="1.5" fill="#2980b9" fill-opacity="0.06"/><circle cx="105" cy="422" r="1.5" fill="#2980b9" fill-opacity="0.06"/><circle cx="175" cy="32" r="1.5" fill="#2980b9" fill-opacity="0.06"/><circle cx="175" cy="97" r="1.5" fill="#2980b9" fill-opacity="0.06"/><circle cx="175" cy="162" r="1.5" fill="#2980b9" fill-opacity="0.06"/><circle cx="175" cy="227" r="1.5" fill="#2980b9" fill-opacity="0.06"/><circle cx="175" cy="292" r="1.5" fill="#2980b9" fill-opacity="0.06"/><circle cx="175" cy="357" r="1.5" fill="#2980b9" fill-opacity="0.06"/><circle cx="175" cy="422" r="1.5" fill="#2980b9" fill-opacity="0.06"/><circle cx="245" cy="32" r="1.5" fill="#2980b9" fill-opacity="0.06"/><circle cx="245" cy="97" r="1.5" fill="#2980b9" fill-opacity="0.06"/><circle cx="245" cy="162" r="1.5" fill="#2980b9" fill-opacity="0.06"/><circle cx="245" cy="227" r="1.5" fill="#2980b9" fill-opacity="0.06"/><circle cx="245" cy="292" r="1.5" fill="#2980b9" fill-opacity="0.06"/><circle cx="245" cy="357" r="1.5" fill="#2980b9" fill-opacity="0.06"/><circle cx="245" cy="422" r="1.5" fill="#2980b9" fill-opacity="0.06"/><circle cx="315" cy="32" r="1.5" fill="#2980b9" fill-opacity="0.06"/><circle cx="315" cy="97" r="1.5" fill="#2980b9" fill-opacity="0.06"/><circle cx="315" cy="162" r="1.5" fill="#2980b9" fill-opacity="0.06"/><circle cx="315" cy="227" r="1.5" fill="#2980b9" fill-opacity="0.06"/><circle cx="315" cy="292" r="1.5" fill="#2980b9" fill-opacity="0.06"/><circle cx="315" cy="357" r="1.5" fill="#2980b9" fill-opacity="0.06"/><circle cx="315" cy="422" r="1.5" fill="#2980b9" fill-opacity="0.06"/><circle cx="385" cy="32" r="1.5" fill="#2980b9" fill-opacity="0.06"/><circle cx="385" cy="97" r="1.5" fill="#2980b9" fill-opacity="0.06"/><circle cx="385" cy="162" r="1.5" fill="#2980b9" fill-opacity="0.06"/><circle cx="385" cy="227" r="1.5" fill="#2980b9" fill-opacity="0.06"/><circle cx="385" cy="292" r="1.5" fill="#2980b9" fill-opacity="0.06"/><circle cx="385" cy="357" r="1.5" fill="#2980b9" fill-opacity="0.06"/><circle cx="385" cy="422" r="1.5" fill="#2980b9" fill-opacity="0.06"/><circle cx="455" cy="32" r="1.5" fill="#2980b9" fill-opacity="0.06"/><circle cx="455" cy="97" r="1.5" fill="#2980b9" fill-opacity="0.06"/><circle cx="455" cy="162" r="1.5" fill="#2980b9" fill-opacity="0.06"/><circle cx="455" cy="227" r="1.5" fill="#2980b9" fill-opacity="0.06"/><circle cx="455" cy="292" r="1.5" fill="#2980b9" fill-opacity="0.06"/><circle cx="455" cy="357" r="1.5" fill="#2980b9" fill-opacity="0.06"/><circle cx="455" cy="422" r="1.5" fill="#2980b9" fill-opacity="0.06"/><circle cx="525" cy="32" r="1.5" fill="#2980b9" fill-opacity="0.06"/><circle cx="525" cy="97" r="1.5" fill="#2980b9" fill-opacity="0.06"/><circle cx="525" cy="162" r="1.5" fill="#2980b9" fill-opacity="0.06"/><circle cx="525" cy="227" r="1.5" fill="#2980b9" fill-opacity="0.06"/><circle cx="525" cy="292" r="1.5" fill="#2980b9" fill-opacity="0.06"/><circle cx="525" cy="357" r="1.5" fill="#2980b9" fill-opacity="0.06"/><circle cx="525" cy="422" r="1.5" fill="#2980b9" fill-opacity="0.06"/><circle cx="595" cy="32" r="1.5" fill="#2980b9" fill-opacity="0.06"/><circle cx="595" cy="97" r="1.5" fill="#2980b9" fill-opacity="0.06"/><circle cx="595" cy="162" r="1.5" fill="#2980b9" fill-opacity="0.06"/><circle cx="595" cy="227" r="1.5" fill="#2980b9" fill-opacity="0.06"/><circle cx="595" cy="292" r="1.5" fill="#2980b9" fill-opacity="0.06"/><circle cx="595" cy="357" r="1.5" fill="#2980b9" fill-opacity="0.06"/><circle cx="595" cy="422" r="1.5" fill="#2980b9" fill-opacity="0.06"/><circle cx="665" cy="32" r="1.5" fill="#2980b9" fill-opacity="0.06"/><circle cx="665" cy="97" r="1.5" fill="#2980b9" fill-opacity="0.06"/><circle cx="665" cy="162" r="1.5" fill="#2980b9" fill-opacity="0.06"/><circle cx="665" cy="227" r="1.5" fill="#2980b9" fill-opacity="0.06"/><circle cx="665" cy="292" r="1.5" fill="#2980b9" fill-opacity="0.06"/><circle cx="665" cy="357" r="1.5" fill="#2980b9" fill-opacity="0.06"/><circle cx="665" cy="422" r="1.5" fill="#2980b9" fill-opacity="0.06"/><circle cx="735" cy="32" r="1.5" fill="#2980b9" fill-opacity="0.06"/><circle cx="735" cy="97" r="1.5" fill="#2980b9" fill-opacity="0.06"/><circle cx="735" cy="162" r="1.5" fill="#2980b9" fill-opacity="0.06"/><circle cx="735" cy="227" r="1.5" fill="#2980b9" fill-opacity="0.06"/><circle cx="735" cy="292" r="1.5" fill="#2980b9" fill-opacity="0.06"/><circle cx="735" cy="357" r="1.5" fill="#2980b9" fill-opacity="0.06"/><circle cx="735" cy="422" r="1.5" fill="#2980b9" fill-opacity="0.06"/><circle cx="805" cy="32" r="1.5" fill="#2980b9" fill-opacity="0.06"/><circle cx="805" cy="97" r="1.5" fill="#2980b9" fill-opacity="0.06"/><circle cx="805" cy="162" r="1.5" fill="#2980b9" fill-opacity="0.06"/><circle cx="805" cy="227" r="1.5" fill="#2980b9" fill-opacity="0.06"/><circle cx="805" cy="292" r="1.5" fill="#2980b9" fill-opacity="0.06"/><circle cx="805" cy="357" r="1.5" fill="#2980b9" fill-opacity="0.06"/><circle cx="805" cy="422" r="1.5" fill="#2980b9" fill-opacity="0.06"/>

  <!-- Emoji -->
  <text x="60" y="400" font-size="80" font-family="Apple Color Emoji, Segoe UI Emoji, Noto Color Emoji, serif">🛒</text>

  <!-- Left accent line -->
  <rect x="0" y="0" width="3" height="450" fill="#2980b9" fill-opacity="0.5"/>
</svg>