<svg xmlns="http://www.w3.org/2000/svg" viewBox="0 0 800 450" width="800" height="450">
  <defs>
    <radialGradient id="bgnwmcms" cx="75%" cy="25%" r="65%">
      <stop offset="0%" stop-color="#00cec9" stop-opacity="0.35"/>
      <stop offset="100%" stop-color="#010F3B" stop-opacity="0"/>
    </radialGradient>
    <linearGradient id="fadenwmcms" x1="0" y1="0" x2="0" y2="1">
      <stop offset="60%" stop-color="#010F3B" stop-opacity="0"/>
      <stop offset="100%" stop-color="#010F3B" stop-opacity="0.9"/>
    </linearGradient>
  </defs>

  <!-- Base -->
  <rect width="800" height="450" fill="#010F3B"/>
  <rect width="800" height="450" fill="url(#bgnwmcms)"/>

  <!-- Topic shapes -->
  <rect x="160" y="100" width="110" height="80" rx="8" fill="#00cec9" fill-opacity="0.1617741778444758" stroke="#00cec9" stroke-width="1" stroke-opacity="0.25"/><rect x="170" y="110" width="60.67593884041163" height="6" rx="3" fill="#00cec9" fill-opacity="0.4"/><rect x="170" y="126" width="79.05089199500485" height="4" rx="2" fill="#00cec9" fill-opacity="0.2"/><rect x="160" y="210" width="110" height="80" rx="8" fill="#00cec9" fill-opacity="0.19559371879997484" stroke="#00cec9" stroke-width="1" stroke-opacity="0.25"/><rect x="170" y="220" width="70.0235461129903" height="6" rx="3" fill="#00cec9" fill-opacity="0.4"/><rect x="170" y="236" width="20.057699725353647" height="4" rx="2" fill="#00cec9" fill-opacity="0.2"/><rect x="160" y="320" width="110" height="80" rx="8" fill="#00cec9" fill-opacity="0.20189679466851762" stroke="#00cec9" stroke-width="1" stroke-opacity="0.25"/><rect x="170" y="330" width="51.84180547141805" height="6" rx="3" fill="#00cec9" fill-opacity="0.4"/><rect x="170" y="346" width="23.043481742185367" height="4" rx="2" fill="#00cec9" fill-opacity="0.2"/><rect x="300" y="100" width="110" height="80" rx="8" fill="#00cec9" fill-opacity="0.14667686955519565" stroke="#00cec9" stroke-width="1" stroke-opacity="0.25"/><rect x="310" y="110" width="70.69482111874052" height="6" rx="3" fill="#00cec9" fill-opacity="0.4"/><rect x="310" y="126" width="78.01416016397519" height="4" rx="2" fill="#00cec9" fill-opacity="0.2"/><rect x="300" y="210" width="110" height="80" rx="8" fill="#00cec9" fill-opacity="0.14370606731939245" stroke="#00cec9" stroke-width="1" stroke-opacity="0.25"/><rect x="310" y="220" width="42.96432423974432" height="6" rx="3" fill="#00cec9" fill-opacity="0.4"/><rect x="310" y="236" width="38.89668819238854" height="4" rx="2" fill="#00cec9" fill-opacity="0.2"/><rect x="300" y="320" width="110" height="80" rx="8" fill="#00cec9" fill-opacity="0.15877921258663136" stroke="#00cec9" stroke-width="1" stroke-opacity="0.25"/><rect x="310" y="330" width="69.98751424354461" height="6" rx="3" fill="#00cec9" fill-opacity="0.4"/><rect x="310" y="346" width="57.71289218972492" height="4" rx="2" fill="#00cec9" fill-opacity="0.2"/><rect x="440" y="100" width="110" height="80" rx="8" fill="#00cec9" fill-opacity="0.15531079615463905" stroke="#00cec9" stroke-width="1" stroke-opacity="0.25"/><rect x="450" y="110" width="47.373918699800164" height="6" rx="3" fill="#00cec9" fill-opacity="0.4"/><rect x="450" y="126" width="35.99817651567912" height="4" rx="2" fill="#00cec9" fill-opacity="0.2"/><rect x="440" y="210" width="110" height="80" rx="8" fill="#00cec9" fill-opacity="0.1893169099279841" stroke="#00cec9" stroke-width="1" stroke-opacity="0.25"/><rect x="450" y="220" width="57.72770651184385" height="6" rx="3" fill="#00cec9" fill-opacity="0.4"/><rect x="450" y="236" width="22.63677449740294" height="4" rx="2" fill="#00cec9" fill-opacity="0.2"/><rect x="440" y="320" width="110" height="80" rx="8" fill="#00cec9" fill-opacity="0.13540614800864206" stroke="#00cec9" stroke-width="1" stroke-opacity="0.25"/><rect x="450" y="330" width="47.22907547755916" height="6" rx="3" fill="#00cec9" fill-opacity="0.4"/><rect x="450" y="346" width="22.48167286534375" height="4" rx="2" fill="#00cec9" fill-opacity="0.2"/><rect x="580" y="100" width="110" height="80" rx="8" fill="#00cec9" fill-opacity="0.21530010033148939" stroke="#00cec9" stroke-width="1" stroke-opacity="0.25"/><rect x="590" y="110" width="71.32151695115034" height="6" rx="3" fill="#00cec9" fill-opacity="0.4"/><rect x="590" y="126" width="35.84855415234932" height="4" rx="2" fill="#00cec9" fill-opacity="0.2"/><rect x="580" y="210" width="110" height="80" rx="8" fill="#00cec9" fill-opacity="0.18198334792986298" stroke="#00cec9" stroke-width="1" stroke-opacity="0.25"/><rect x="590" y="220" width="49.15772869599881" height="6" rx="3" fill="#00cec9" fill-opacity="0.4"/><rect x="590" y="236" width="21.736073289520746" height="4" rx="2" fill="#00cec9" fill-opacity="0.2"/><rect x="580" y="320" width="110" height="80" rx="8" fill="#00cec9" fill-opacity="0.20618953085123287" stroke="#00cec9" stroke-width="1" stroke-opacity="0.25"/><rect x="590" y="330" width="78.8415343192898" height="6" rx="3" fill="#00cec9" fill-opacity="0.4"/><rect x="590" y="346" width="44.96010999135417" height="4" rx="2" fill="#00cec9" fill-opacity="0.2"/>

  <!-- Bottom fade -->
  <rect width="800" height="450" fill="url(#fadenwmcms)"/>

  <!-- Accent bar -->
  <rect x="0" y="430" width="800" height="4" fill="#00cec9" fill-opacity="0.8"/>

  <!-- Dot grid background -->
  <circle cx="35" cy="32" r="1.5" fill="#00cec9" fill-opacity="0.06"/><circle cx="35" cy="97" r="1.5" fill="#00cec9" fill-opacity="0.06"/><circle cx="35" cy="162" r="1.5" fill="#00cec9" fill-opacity="0.06"/><circle cx="35" cy="227" r="1.5" fill="#00cec9" fill-opacity="0.06"/><circle cx="35" cy="292" r="1.5" fill="#00cec9" fill-opacity="0.06"/><circle cx="35" cy="357" r="1.5" fill="#00cec9" fill-opacity="0.06"/><circle cx="35" cy="422" r="1.5" fill="#00cec9" fill-opacity="0.06"/><circle cx="105" cy="32" r="1.5" fill="#00cec9" fill-opacity="0.06"/><circle cx="105" cy="97" r="1.5" fill="#00cec9" fill-opacity="0.06"/><circle cx="105" cy="162" r="1.5" fill="#00cec9" fill-opacity="0.06"/><circle cx="105" cy="227" r="1.5" fill="#00cec9" fill-opacity="0.06"/><circle cx="105" cy="292" r="1.5" fill="#00cec9" fill-opacity="0.06"/><circle cx="105" cy="357" r="1.5" fill="#00cec9" fill-opacity="0.06"/><circle cx="105" cy="422" r="1.5" fill="#00cec9" fill-opacity="0.06"/><circle cx="175" cy="32" r="1.5" fill="#00cec9" fill-opacity="0.06"/><circle cx="175" cy="97" r="1.5" fill="#00cec9" fill-opacity="0.06"/><circle cx="175" cy="162" r="1.5" fill="#00cec9" fill-opacity="0.06"/><circle cx="175" cy="227" r="1.5" fill="#00cec9" fill-opacity="0.06"/><circle cx="175" cy="292" r="1.5" fill="#00cec9" fill-opacity="0.06"/><circle cx="175" cy="357" r="1.5" fill="#00cec9" fill-opacity="0.06"/><circle cx="175" cy="422" r="1.5" fill="#00cec9" fill-opacity="0.06"/><circle cx="245" cy="32" r="1.5" fill="#00cec9" fill-opacity="0.06"/><circle cx="245" cy="97" r="1.5" fill="#00cec9" fill-opacity="0.06"/><circle cx="245" cy="162" r="1.5" fill="#00cec9" fill-opacity="0.06"/><circle cx="245" cy="227" r="1.5" fill="#00cec9" fill-opacity="0.06"/><circle cx="245" cy="292" r="1.5" fill="#00cec9" fill-opacity="0.06"/><circle cx="245" cy="357" r="1.5" fill="#00cec9" fill-opacity="0.06"/><circle cx="245" cy="422" r="1.5" fill="#00cec9" fill-opacity="0.06"/><circle cx="315" cy="32" r="1.5" fill="#00cec9" fill-opacity="0.06"/><circle cx="315" cy="97" r="1.5" fill="#00cec9" fill-opacity="0.06"/><circle cx="315" cy="162" r="1.5" fill="#00cec9" fill-opacity="0.06"/><circle cx="315" cy="227" r="1.5" fill="#00cec9" fill-opacity="0.06"/><circle cx="315" cy="292" r="1.5" fill="#00cec9" fill-opacity="0.06"/><circle cx="315" cy="357" r="1.5" fill="#00cec9" fill-opacity="0.06"/><circle cx="315" cy="422" r="1.5" fill="#00cec9" fill-opacity="0.06"/><circle cx="385" cy="32" r="1.5" fill="#00cec9" fill-opacity="0.06"/><circle cx="385" cy="97" r="1.5" fill="#00cec9" fill-opacity="0.06"/><circle cx="385" cy="162" r="1.5" fill="#00cec9" fill-opacity="0.06"/><circle cx="385" cy="227" r="1.5" fill="#00cec9" fill-opacity="0.06"/><circle cx="385" cy="292" r="1.5" fill="#00cec9" fill-opacity="0.06"/><circle cx="385" cy="357" r="1.5" fill="#00cec9" fill-opacity="0.06"/><circle cx="385" cy="422" r="1.5" fill="#00cec9" fill-opacity="0.06"/><circle cx="455" cy="32" r="1.5" fill="#00cec9" fill-opacity="0.06"/><circle cx="455" cy="97" r="1.5" fill="#00cec9" fill-opacity="0.06"/><circle cx="455" cy="162" r="1.5" fill="#00cec9" fill-opacity="0.06"/><circle cx="455" cy="227" r="1.5" fill="#00cec9" fill-opacity="0.06"/><circle cx="455" cy="292" r="1.5" fill="#00cec9" fill-opacity="0.06"/><circle cx="455" cy="357" r="1.5" fill="#00cec9" fill-opacity="0.06"/><circle cx="455" cy="422" r="1.5" fill="#00cec9" fill-opacity="0.06"/><circle cx="525" cy="32" r="1.5" fill="#00cec9" fill-opacity="0.06"/><circle cx="525" cy="97" r="1.5" fill="#00cec9" fill-opacity="0.06"/><circle cx="525" cy="162" r="1.5" fill="#00cec9" fill-opacity="0.06"/><circle cx="525" cy="227" r="1.5" fill="#00cec9" fill-opacity="0.06"/><circle cx="525" cy="292" r="1.5" fill="#00cec9" fill-opacity="0.06"/><circle cx="525" cy="357" r="1.5" fill="#00cec9" fill-opacity="0.06"/><circle cx="525" cy="422" r="1.5" fill="#00cec9" fill-opacity="0.06"/><circle cx="595" cy="32" r="1.5" fill="#00cec9" fill-opacity="0.06"/><circle cx="595" cy="97" r="1.5" fill="#00cec9" fill-opacity="0.06"/><circle cx="595" cy="162" r="1.5" fill="#00cec9" fill-opacity="0.06"/><circle cx="595" cy="227" r="1.5" fill="#00cec9" fill-opacity="0.06"/><circle cx="595" cy="292" r="1.5" fill="#00cec9" fill-opacity="0.06"/><circle cx="595" cy="357" r="1.5" fill="#00cec9" fill-opacity="0.06"/><circle cx="595" cy="422" r="1.5" fill="#00cec9" fill-opacity="0.06"/><circle cx="665" cy="32" r="1.5" fill="#00cec9" fill-opacity="0.06"/><circle cx="665" cy="97" r="1.5" fill="#00cec9" fill-opacity="0.06"/><circle cx="665" cy="162" r="1.5" fill="#00cec9" fill-opacity="0.06"/><circle cx="665" cy="227" r="1.5" fill="#00cec9" fill-opacity="0.06"/><circle cx="665" cy="292" r="1.5" fill="#00cec9" fill-opacity="0.06"/><circle cx="665" cy="357" r="1.5" fill="#00cec9" fill-opacity="0.06"/><circle cx="665" cy="422" r="1.5" fill="#00cec9" fill-opacity="0.06"/><circle cx="735" cy="32" r="1.5" fill="#00cec9" fill-opacity="0.06"/><circle cx="735" cy="97" r="1.5" fill="#00cec9" fill-opacity="0.06"/><circle cx="735" cy="162" r="1.5" fill="#00cec9" fill-opacity="0.06"/><circle cx="735" cy="227" r="1.5" fill="#00cec9" fill-opacity="0.06"/><circle cx="735" cy="292" r="1.5" fill="#00cec9" fill-opacity="0.06"/><circle cx="735" cy="357" r="1.5" fill="#00cec9" fill-opacity="0.06"/><circle cx="735" cy="422" r="1.5" fill="#00cec9" fill-opacity="0.06"/><circle cx="805" cy="32" r="1.5" fill="#00cec9" fill-opacity="0.06"/><circle cx="805" cy="97" r="1.5" fill="#00cec9" fill-opacity="0.06"/><circle cx="805" cy="162" r="1.5" fill="#00cec9" fill-opacity="0.06"/><circle cx="805" cy="227" r="1.5" fill="#00cec9" fill-opacity="0.06"/><circle cx="805" cy="292" r="1.5" fill="#00cec9" fill-opacity="0.06"/><circle cx="805" cy="357" r="1.5" fill="#00cec9" fill-opacity="0.06"/><circle cx="805" cy="422" r="1.5" fill="#00cec9" fill-opacity="0.06"/>

  <!-- Emoji -->
  <text x="60" y="400" font-size="80" font-family="Apple Color Emoji, Segoe UI Emoji, Noto Color Emoji, serif">🌐</text>

  <!-- Left accent line -->
  <rect x="0" y="0" width="3" height="450" fill="#00cec9" fill-opacity="0.5"/>
</svg>