<svg xmlns="http://www.w3.org/2000/svg" viewBox="0 0 800 450" width="800" height="450">
  <defs>
    <radialGradient id="bgnwmcms" cx="75%" cy="25%" r="65%">
      <stop offset="0%" stop-color="#00cec9" stop-opacity="0.35"/>
      <stop offset="100%" stop-color="#010F3B" stop-opacity="0"/>
    </radialGradient>
    <linearGradient id="fadenwmcms" x1="0" y1="0" x2="0" y2="1">
      <stop offset="60%" stop-color="#010F3B" stop-opacity="0"/>
      <stop offset="100%" stop-color="#010F3B" stop-opacity="0.9"/>
    </linearGradient>
  </defs>

  <!-- Base -->
  <rect width="800" height="450" fill="#010F3B"/>
  <rect width="800" height="450" fill="url(#bgnwmcms)"/>

  <!-- Topic shapes -->
  <rect x="160" y="100" width="110" height="80" rx="8" fill="#00cec9" fill-opacity="0.20928498408613883" stroke="#00cec9" stroke-width="1" stroke-opacity="0.25"/><rect x="170" y="110" width="56.478203069580815" height="6" rx="3" fill="#00cec9" fill-opacity="0.4"/><rect x="170" y="126" width="75.16616869298636" height="4" rx="2" fill="#00cec9" fill-opacity="0.2"/><rect x="160" y="210" width="110" height="80" rx="8" fill="#00cec9" fill-opacity="0.19009407511892706" stroke="#00cec9" stroke-width="1" stroke-opacity="0.25"/><rect x="170" y="220" width="53.99381163760453" height="6" rx="3" fill="#00cec9" fill-opacity="0.4"/><rect x="170" y="236" width="30.648318144494276" height="4" rx="2" fill="#00cec9" fill-opacity="0.2"/><rect x="160" y="320" width="110" height="80" rx="8" fill="#00cec9" fill-opacity="0.18274087226417632" stroke="#00cec9" stroke-width="1" stroke-opacity="0.25"/><rect x="170" y="330" width="76.71331597523255" height="6" rx="3" fill="#00cec9" fill-opacity="0.4"/><rect x="170" y="346" width="73.99235729705674" height="4" rx="2" fill="#00cec9" fill-opacity="0.2"/><rect x="300" y="100" width="110" height="80" rx="8" fill="#00cec9" fill-opacity="0.20122873023878335" stroke="#00cec9" stroke-width="1" stroke-opacity="0.25"/><rect x="310" y="110" width="42.35499931022572" height="6" rx="3" fill="#00cec9" fill-opacity="0.4"/><rect x="310" y="126" width="79.1060107055306" height="4" rx="2" fill="#00cec9" fill-opacity="0.2"/><rect x="300" y="210" width="110" height="80" rx="8" fill="#00cec9" fill-opacity="0.13320225982666029" stroke="#00cec9" stroke-width="1" stroke-opacity="0.25"/><rect x="310" y="220" width="67.69497120495657" height="6" rx="3" fill="#00cec9" fill-opacity="0.4"/><rect x="310" y="236" width="71.89202763834274" height="4" rx="2" fill="#00cec9" fill-opacity="0.2"/><rect x="300" y="320" width="110" height="80" rx="8" fill="#00cec9" fill-opacity="0.19421387218135322" stroke="#00cec9" stroke-width="1" stroke-opacity="0.25"/><rect x="310" y="330" width="55.17674449325777" height="6" rx="3" fill="#00cec9" fill-opacity="0.4"/><rect x="310" y="346" width="79.018162388527" height="4" rx="2" fill="#00cec9" fill-opacity="0.2"/><rect x="440" y="100" width="110" height="80" rx="8" fill="#00cec9" fill-opacity="0.19973572420629698" stroke="#00cec9" stroke-width="1" stroke-opacity="0.25"/><rect x="450" y="110" width="40.10702713387483" height="6" rx="3" fill="#00cec9" fill-opacity="0.4"/><rect x="450" y="126" width="32.40832783997578" height="4" rx="2" fill="#00cec9" fill-opacity="0.2"/><rect x="440" y="210" width="110" height="80" rx="8" fill="#00cec9" fill-opacity="0.1467691068746141" stroke="#00cec9" stroke-width="1" stroke-opacity="0.25"/><rect x="450" y="220" width="79.39487241840712" height="6" rx="3" fill="#00cec9" fill-opacity="0.4"/><rect x="450" y="236" width="51.2414210454443" height="4" rx="2" fill="#00cec9" fill-opacity="0.2"/><rect x="440" y="320" width="110" height="80" rx="8" fill="#00cec9" fill-opacity="0.21509872841165567" stroke="#00cec9" stroke-width="1" stroke-opacity="0.25"/><rect x="450" y="330" width="50.34691907467679" height="6" rx="3" fill="#00cec9" fill-opacity="0.4"/><rect x="450" y="346" width="41.42703710558497" height="4" rx="2" fill="#00cec9" fill-opacity="0.2"/><rect x="580" y="100" width="110" height="80" rx="8" fill="#00cec9" fill-opacity="0.1253882370061481" stroke="#00cec9" stroke-width="1" stroke-opacity="0.25"/><rect x="590" y="110" width="76.42676710198538" height="6" rx="3" fill="#00cec9" fill-opacity="0.4"/><rect x="590" y="126" width="72.57710470107685" height="4" rx="2" fill="#00cec9" fill-opacity="0.2"/><rect x="580" y="210" width="110" height="80" rx="8" fill="#00cec9" fill-opacity="0.17172645510735018" stroke="#00cec9" stroke-width="1" stroke-opacity="0.25"/><rect x="590" y="220" width="60.133757086322504" height="6" rx="3" fill="#00cec9" fill-opacity="0.4"/><rect x="590" y="236" width="47.59315329726645" height="4" rx="2" fill="#00cec9" fill-opacity="0.2"/><rect x="580" y="320" width="110" height="80" rx="8" fill="#00cec9" fill-opacity="0.21854214234017005" stroke="#00cec9" stroke-width="1" stroke-opacity="0.25"/><rect x="590" y="330" width="46.81443516885379" height="6" rx="3" fill="#00cec9" fill-opacity="0.4"/><rect x="590" y="346" width="58.744490964099754" height="4" rx="2" fill="#00cec9" fill-opacity="0.2"/>

  <!-- Bottom fade -->
  <rect width="800" height="450" fill="url(#fadenwmcms)"/>

  <!-- Accent bar -->
  <rect x="0" y="430" width="800" height="4" fill="#00cec9" fill-opacity="0.8"/>

  <!-- Dot grid background -->
  <circle cx="35" cy="32" r="1.5" fill="#00cec9" fill-opacity="0.06"/><circle cx="35" cy="97" r="1.5" fill="#00cec9" fill-opacity="0.06"/><circle cx="35" cy="162" r="1.5" fill="#00cec9" fill-opacity="0.06"/><circle cx="35" cy="227" r="1.5" fill="#00cec9" fill-opacity="0.06"/><circle cx="35" cy="292" r="1.5" fill="#00cec9" fill-opacity="0.06"/><circle cx="35" cy="357" r="1.5" fill="#00cec9" fill-opacity="0.06"/><circle cx="35" cy="422" r="1.5" fill="#00cec9" fill-opacity="0.06"/><circle cx="105" cy="32" r="1.5" fill="#00cec9" fill-opacity="0.06"/><circle cx="105" cy="97" r="1.5" fill="#00cec9" fill-opacity="0.06"/><circle cx="105" cy="162" r="1.5" fill="#00cec9" fill-opacity="0.06"/><circle cx="105" cy="227" r="1.5" fill="#00cec9" fill-opacity="0.06"/><circle cx="105" cy="292" r="1.5" fill="#00cec9" fill-opacity="0.06"/><circle cx="105" cy="357" r="1.5" fill="#00cec9" fill-opacity="0.06"/><circle cx="105" cy="422" r="1.5" fill="#00cec9" fill-opacity="0.06"/><circle cx="175" cy="32" r="1.5" fill="#00cec9" fill-opacity="0.06"/><circle cx="175" cy="97" r="1.5" fill="#00cec9" fill-opacity="0.06"/><circle cx="175" cy="162" r="1.5" fill="#00cec9" fill-opacity="0.06"/><circle cx="175" cy="227" r="1.5" fill="#00cec9" fill-opacity="0.06"/><circle cx="175" cy="292" r="1.5" fill="#00cec9" fill-opacity="0.06"/><circle cx="175" cy="357" r="1.5" fill="#00cec9" fill-opacity="0.06"/><circle cx="175" cy="422" r="1.5" fill="#00cec9" fill-opacity="0.06"/><circle cx="245" cy="32" r="1.5" fill="#00cec9" fill-opacity="0.06"/><circle cx="245" cy="97" r="1.5" fill="#00cec9" fill-opacity="0.06"/><circle cx="245" cy="162" r="1.5" fill="#00cec9" fill-opacity="0.06"/><circle cx="245" cy="227" r="1.5" fill="#00cec9" fill-opacity="0.06"/><circle cx="245" cy="292" r="1.5" fill="#00cec9" fill-opacity="0.06"/><circle cx="245" cy="357" r="1.5" fill="#00cec9" fill-opacity="0.06"/><circle cx="245" cy="422" r="1.5" fill="#00cec9" fill-opacity="0.06"/><circle cx="315" cy="32" r="1.5" fill="#00cec9" fill-opacity="0.06"/><circle cx="315" cy="97" r="1.5" fill="#00cec9" fill-opacity="0.06"/><circle cx="315" cy="162" r="1.5" fill="#00cec9" fill-opacity="0.06"/><circle cx="315" cy="227" r="1.5" fill="#00cec9" fill-opacity="0.06"/><circle cx="315" cy="292" r="1.5" fill="#00cec9" fill-opacity="0.06"/><circle cx="315" cy="357" r="1.5" fill="#00cec9" fill-opacity="0.06"/><circle cx="315" cy="422" r="1.5" fill="#00cec9" fill-opacity="0.06"/><circle cx="385" cy="32" r="1.5" fill="#00cec9" fill-opacity="0.06"/><circle cx="385" cy="97" r="1.5" fill="#00cec9" fill-opacity="0.06"/><circle cx="385" cy="162" r="1.5" fill="#00cec9" fill-opacity="0.06"/><circle cx="385" cy="227" r="1.5" fill="#00cec9" fill-opacity="0.06"/><circle cx="385" cy="292" r="1.5" fill="#00cec9" fill-opacity="0.06"/><circle cx="385" cy="357" r="1.5" fill="#00cec9" fill-opacity="0.06"/><circle cx="385" cy="422" r="1.5" fill="#00cec9" fill-opacity="0.06"/><circle cx="455" cy="32" r="1.5" fill="#00cec9" fill-opacity="0.06"/><circle cx="455" cy="97" r="1.5" fill="#00cec9" fill-opacity="0.06"/><circle cx="455" cy="162" r="1.5" fill="#00cec9" fill-opacity="0.06"/><circle cx="455" cy="227" r="1.5" fill="#00cec9" fill-opacity="0.06"/><circle cx="455" cy="292" r="1.5" fill="#00cec9" fill-opacity="0.06"/><circle cx="455" cy="357" r="1.5" fill="#00cec9" fill-opacity="0.06"/><circle cx="455" cy="422" r="1.5" fill="#00cec9" fill-opacity="0.06"/><circle cx="525" cy="32" r="1.5" fill="#00cec9" fill-opacity="0.06"/><circle cx="525" cy="97" r="1.5" fill="#00cec9" fill-opacity="0.06"/><circle cx="525" cy="162" r="1.5" fill="#00cec9" fill-opacity="0.06"/><circle cx="525" cy="227" r="1.5" fill="#00cec9" fill-opacity="0.06"/><circle cx="525" cy="292" r="1.5" fill="#00cec9" fill-opacity="0.06"/><circle cx="525" cy="357" r="1.5" fill="#00cec9" fill-opacity="0.06"/><circle cx="525" cy="422" r="1.5" fill="#00cec9" fill-opacity="0.06"/><circle cx="595" cy="32" r="1.5" fill="#00cec9" fill-opacity="0.06"/><circle cx="595" cy="97" r="1.5" fill="#00cec9" fill-opacity="0.06"/><circle cx="595" cy="162" r="1.5" fill="#00cec9" fill-opacity="0.06"/><circle cx="595" cy="227" r="1.5" fill="#00cec9" fill-opacity="0.06"/><circle cx="595" cy="292" r="1.5" fill="#00cec9" fill-opacity="0.06"/><circle cx="595" cy="357" r="1.5" fill="#00cec9" fill-opacity="0.06"/><circle cx="595" cy="422" r="1.5" fill="#00cec9" fill-opacity="0.06"/><circle cx="665" cy="32" r="1.5" fill="#00cec9" fill-opacity="0.06"/><circle cx="665" cy="97" r="1.5" fill="#00cec9" fill-opacity="0.06"/><circle cx="665" cy="162" r="1.5" fill="#00cec9" fill-opacity="0.06"/><circle cx="665" cy="227" r="1.5" fill="#00cec9" fill-opacity="0.06"/><circle cx="665" cy="292" r="1.5" fill="#00cec9" fill-opacity="0.06"/><circle cx="665" cy="357" r="1.5" fill="#00cec9" fill-opacity="0.06"/><circle cx="665" cy="422" r="1.5" fill="#00cec9" fill-opacity="0.06"/><circle cx="735" cy="32" r="1.5" fill="#00cec9" fill-opacity="0.06"/><circle cx="735" cy="97" r="1.5" fill="#00cec9" fill-opacity="0.06"/><circle cx="735" cy="162" r="1.5" fill="#00cec9" fill-opacity="0.06"/><circle cx="735" cy="227" r="1.5" fill="#00cec9" fill-opacity="0.06"/><circle cx="735" cy="292" r="1.5" fill="#00cec9" fill-opacity="0.06"/><circle cx="735" cy="357" r="1.5" fill="#00cec9" fill-opacity="0.06"/><circle cx="735" cy="422" r="1.5" fill="#00cec9" fill-opacity="0.06"/><circle cx="805" cy="32" r="1.5" fill="#00cec9" fill-opacity="0.06"/><circle cx="805" cy="97" r="1.5" fill="#00cec9" fill-opacity="0.06"/><circle cx="805" cy="162" r="1.5" fill="#00cec9" fill-opacity="0.06"/><circle cx="805" cy="227" r="1.5" fill="#00cec9" fill-opacity="0.06"/><circle cx="805" cy="292" r="1.5" fill="#00cec9" fill-opacity="0.06"/><circle cx="805" cy="357" r="1.5" fill="#00cec9" fill-opacity="0.06"/><circle cx="805" cy="422" r="1.5" fill="#00cec9" fill-opacity="0.06"/>

  <!-- Emoji -->
  <text x="60" y="400" font-size="80" font-family="Apple Color Emoji, Segoe UI Emoji, Noto Color Emoji, serif">🌐</text>

  <!-- Left accent line -->
  <rect x="0" y="0" width="3" height="450" fill="#00cec9" fill-opacity="0.5"/>
</svg>