<svg xmlns="http://www.w3.org/2000/svg" viewBox="0 0 800 450" width="800" height="450">
  <defs>
    <radialGradient id="bgpaidads" cx="75%" cy="25%" r="65%">
      <stop offset="0%" stop-color="#fd79a8" stop-opacity="0.35"/>
      <stop offset="100%" stop-color="#010F3B" stop-opacity="0"/>
    </radialGradient>
    <linearGradient id="fadepaidads" x1="0" y1="0" x2="0" y2="1">
      <stop offset="60%" stop-color="#010F3B" stop-opacity="0"/>
      <stop offset="100%" stop-color="#010F3B" stop-opacity="0.9"/>
    </linearGradient>
  </defs>

  <!-- Base -->
  <rect width="800" height="450" fill="#010F3B"/>
  <rect width="800" height="450" fill="url(#bgpaidads)"/>

  <!-- Topic shapes -->
  <circle cx="420" cy="225" r="160" fill="none" stroke="#fd79a8" stroke-width="3" stroke-opacity="0.15"/><circle cx="420" cy="225" r="120" fill="none" stroke="#fd79a8" stroke-width="2" stroke-opacity="0.3"/><circle cx="420" cy="225" r="80" fill="none" stroke="#fd79a8" stroke-width="2" stroke-opacity="0.44999999999999996"/><circle cx="420" cy="225" r="40" fill="none" stroke="#fd79a8" stroke-width="2" stroke-opacity="0.6"/><line x1="200" y1="225" x2="640" y2="225" stroke="#fd79a8" stroke-width="1.5" stroke-opacity="0.2"/>
   <line x1="420" y1="60" x2="420" y2="390" stroke="#fd79a8" stroke-width="1.5" stroke-opacity="0.2"/>
   <circle cx="420" cy="225" r="16" fill="#fd79a8" fill-opacity="0.7"/>

  <!-- Bottom fade -->
  <rect width="800" height="450" fill="url(#fadepaidads)"/>

  <!-- Accent bar -->
  <rect x="0" y="430" width="800" height="4" fill="#fd79a8" fill-opacity="0.8"/>

  <!-- Dot grid background -->
  <circle cx="35" cy="32" r="1.5" fill="#fd79a8" fill-opacity="0.06"/><circle cx="35" cy="97" r="1.5" fill="#fd79a8" fill-opacity="0.06"/><circle cx="35" cy="162" r="1.5" fill="#fd79a8" fill-opacity="0.06"/><circle cx="35" cy="227" r="1.5" fill="#fd79a8" fill-opacity="0.06"/><circle cx="35" cy="292" r="1.5" fill="#fd79a8" fill-opacity="0.06"/><circle cx="35" cy="357" r="1.5" fill="#fd79a8" fill-opacity="0.06"/><circle cx="35" cy="422" r="1.5" fill="#fd79a8" fill-opacity="0.06"/><circle cx="105" cy="32" r="1.5" fill="#fd79a8" fill-opacity="0.06"/><circle cx="105" cy="97" r="1.5" fill="#fd79a8" fill-opacity="0.06"/><circle cx="105" cy="162" r="1.5" fill="#fd79a8" fill-opacity="0.06"/><circle cx="105" cy="227" r="1.5" fill="#fd79a8" fill-opacity="0.06"/><circle cx="105" cy="292" r="1.5" fill="#fd79a8" fill-opacity="0.06"/><circle cx="105" cy="357" r="1.5" fill="#fd79a8" fill-opacity="0.06"/><circle cx="105" cy="422" r="1.5" fill="#fd79a8" fill-opacity="0.06"/><circle cx="175" cy="32" r="1.5" fill="#fd79a8" fill-opacity="0.06"/><circle cx="175" cy="97" r="1.5" fill="#fd79a8" fill-opacity="0.06"/><circle cx="175" cy="162" r="1.5" fill="#fd79a8" fill-opacity="0.06"/><circle cx="175" cy="227" r="1.5" fill="#fd79a8" fill-opacity="0.06"/><circle cx="175" cy="292" r="1.5" fill="#fd79a8" fill-opacity="0.06"/><circle cx="175" cy="357" r="1.5" fill="#fd79a8" fill-opacity="0.06"/><circle cx="175" cy="422" r="1.5" fill="#fd79a8" fill-opacity="0.06"/><circle cx="245" cy="32" r="1.5" fill="#fd79a8" fill-opacity="0.06"/><circle cx="245" cy="97" r="1.5" fill="#fd79a8" fill-opacity="0.06"/><circle cx="245" cy="162" r="1.5" fill="#fd79a8" fill-opacity="0.06"/><circle cx="245" cy="227" r="1.5" fill="#fd79a8" fill-opacity="0.06"/><circle cx="245" cy="292" r="1.5" fill="#fd79a8" fill-opacity="0.06"/><circle cx="245" cy="357" r="1.5" fill="#fd79a8" fill-opacity="0.06"/><circle cx="245" cy="422" r="1.5" fill="#fd79a8" fill-opacity="0.06"/><circle cx="315" cy="32" r="1.5" fill="#fd79a8" fill-opacity="0.06"/><circle cx="315" cy="97" r="1.5" fill="#fd79a8" fill-opacity="0.06"/><circle cx="315" cy="162" r="1.5" fill="#fd79a8" fill-opacity="0.06"/><circle cx="315" cy="227" r="1.5" fill="#fd79a8" fill-opacity="0.06"/><circle cx="315" cy="292" r="1.5" fill="#fd79a8" fill-opacity="0.06"/><circle cx="315" cy="357" r="1.5" fill="#fd79a8" fill-opacity="0.06"/><circle cx="315" cy="422" r="1.5" fill="#fd79a8" fill-opacity="0.06"/><circle cx="385" cy="32" r="1.5" fill="#fd79a8" fill-opacity="0.06"/><circle cx="385" cy="97" r="1.5" fill="#fd79a8" fill-opacity="0.06"/><circle cx="385" cy="162" r="1.5" fill="#fd79a8" fill-opacity="0.06"/><circle cx="385" cy="227" r="1.5" fill="#fd79a8" fill-opacity="0.06"/><circle cx="385" cy="292" r="1.5" fill="#fd79a8" fill-opacity="0.06"/><circle cx="385" cy="357" r="1.5" fill="#fd79a8" fill-opacity="0.06"/><circle cx="385" cy="422" r="1.5" fill="#fd79a8" fill-opacity="0.06"/><circle cx="455" cy="32" r="1.5" fill="#fd79a8" fill-opacity="0.06"/><circle cx="455" cy="97" r="1.5" fill="#fd79a8" fill-opacity="0.06"/><circle cx="455" cy="162" r="1.5" fill="#fd79a8" fill-opacity="0.06"/><circle cx="455" cy="227" r="1.5" fill="#fd79a8" fill-opacity="0.06"/><circle cx="455" cy="292" r="1.5" fill="#fd79a8" fill-opacity="0.06"/><circle cx="455" cy="357" r="1.5" fill="#fd79a8" fill-opacity="0.06"/><circle cx="455" cy="422" r="1.5" fill="#fd79a8" fill-opacity="0.06"/><circle cx="525" cy="32" r="1.5" fill="#fd79a8" fill-opacity="0.06"/><circle cx="525" cy="97" r="1.5" fill="#fd79a8" fill-opacity="0.06"/><circle cx="525" cy="162" r="1.5" fill="#fd79a8" fill-opacity="0.06"/><circle cx="525" cy="227" r="1.5" fill="#fd79a8" fill-opacity="0.06"/><circle cx="525" cy="292" r="1.5" fill="#fd79a8" fill-opacity="0.06"/><circle cx="525" cy="357" r="1.5" fill="#fd79a8" fill-opacity="0.06"/><circle cx="525" cy="422" r="1.5" fill="#fd79a8" fill-opacity="0.06"/><circle cx="595" cy="32" r="1.5" fill="#fd79a8" fill-opacity="0.06"/><circle cx="595" cy="97" r="1.5" fill="#fd79a8" fill-opacity="0.06"/><circle cx="595" cy="162" r="1.5" fill="#fd79a8" fill-opacity="0.06"/><circle cx="595" cy="227" r="1.5" fill="#fd79a8" fill-opacity="0.06"/><circle cx="595" cy="292" r="1.5" fill="#fd79a8" fill-opacity="0.06"/><circle cx="595" cy="357" r="1.5" fill="#fd79a8" fill-opacity="0.06"/><circle cx="595" cy="422" r="1.5" fill="#fd79a8" fill-opacity="0.06"/><circle cx="665" cy="32" r="1.5" fill="#fd79a8" fill-opacity="0.06"/><circle cx="665" cy="97" r="1.5" fill="#fd79a8" fill-opacity="0.06"/><circle cx="665" cy="162" r="1.5" fill="#fd79a8" fill-opacity="0.06"/><circle cx="665" cy="227" r="1.5" fill="#fd79a8" fill-opacity="0.06"/><circle cx="665" cy="292" r="1.5" fill="#fd79a8" fill-opacity="0.06"/><circle cx="665" cy="357" r="1.5" fill="#fd79a8" fill-opacity="0.06"/><circle cx="665" cy="422" r="1.5" fill="#fd79a8" fill-opacity="0.06"/><circle cx="735" cy="32" r="1.5" fill="#fd79a8" fill-opacity="0.06"/><circle cx="735" cy="97" r="1.5" fill="#fd79a8" fill-opacity="0.06"/><circle cx="735" cy="162" r="1.5" fill="#fd79a8" fill-opacity="0.06"/><circle cx="735" cy="227" r="1.5" fill="#fd79a8" fill-opacity="0.06"/><circle cx="735" cy="292" r="1.5" fill="#fd79a8" fill-opacity="0.06"/><circle cx="735" cy="357" r="1.5" fill="#fd79a8" fill-opacity="0.06"/><circle cx="735" cy="422" r="1.5" fill="#fd79a8" fill-opacity="0.06"/><circle cx="805" cy="32" r="1.5" fill="#fd79a8" fill-opacity="0.06"/><circle cx="805" cy="97" r="1.5" fill="#fd79a8" fill-opacity="0.06"/><circle cx="805" cy="162" r="1.5" fill="#fd79a8" fill-opacity="0.06"/><circle cx="805" cy="227" r="1.5" fill="#fd79a8" fill-opacity="0.06"/><circle cx="805" cy="292" r="1.5" fill="#fd79a8" fill-opacity="0.06"/><circle cx="805" cy="357" r="1.5" fill="#fd79a8" fill-opacity="0.06"/><circle cx="805" cy="422" r="1.5" fill="#fd79a8" fill-opacity="0.06"/>

  <!-- Emoji -->
  <text x="60" y="400" font-size="80" font-family="Apple Color Emoji, Segoe UI Emoji, Noto Color Emoji, serif">🎯</text>

  <!-- Left accent line -->
  <rect x="0" y="0" width="3" height="450" fill="#fd79a8" fill-opacity="0.5"/>
</svg>