<svg xmlns="http://www.w3.org/2000/svg" viewBox="0 0 800 450" width="800" height="450">
  <defs>
    <radialGradient id="bgwebsites" cx="75%" cy="25%" r="65%">
      <stop offset="0%" stop-color="#0984e3" stop-opacity="0.35"/>
      <stop offset="100%" stop-color="#010F3B" stop-opacity="0"/>
    </radialGradient>
    <linearGradient id="fadewebsites" x1="0" y1="0" x2="0" y2="1">
      <stop offset="60%" stop-color="#010F3B" stop-opacity="0"/>
      <stop offset="100%" stop-color="#010F3B" stop-opacity="0.9"/>
    </linearGradient>
  </defs>

  <!-- Base -->
  <rect width="800" height="450" fill="#010F3B"/>
  <rect width="800" height="450" fill="url(#bgwebsites)"/>

  <!-- Topic shapes -->
  <rect x="160" y="100" width="110" height="80" rx="8" fill="#0984e3" fill-opacity="0.162033016376155" stroke="#0984e3" stroke-width="1" stroke-opacity="0.25"/><rect x="170" y="110" width="67.45426502666557" height="6" rx="3" fill="#0984e3" fill-opacity="0.4"/><rect x="170" y="126" width="55.76972743572504" height="4" rx="2" fill="#0984e3" fill-opacity="0.2"/><rect x="160" y="210" width="110" height="80" rx="8" fill="#0984e3" fill-opacity="0.2083409956958033" stroke="#0984e3" stroke-width="1" stroke-opacity="0.25"/><rect x="170" y="220" width="49.791203812994524" height="6" rx="3" fill="#0984e3" fill-opacity="0.4"/><rect x="170" y="236" width="33.25692814178778" height="4" rx="2" fill="#0984e3" fill-opacity="0.2"/><rect x="160" y="320" width="110" height="80" rx="8" fill="#0984e3" fill-opacity="0.19704732134084924" stroke="#0984e3" stroke-width="1" stroke-opacity="0.25"/><rect x="170" y="330" width="63.832818961995024" height="6" rx="3" fill="#0984e3" fill-opacity="0.4"/><rect x="170" y="346" width="64.24181376052664" height="4" rx="2" fill="#0984e3" fill-opacity="0.2"/><rect x="300" y="100" width="110" height="80" rx="8" fill="#0984e3" fill-opacity="0.1844448340286374" stroke="#0984e3" stroke-width="1" stroke-opacity="0.25"/><rect x="310" y="110" width="61.56020912847277" height="6" rx="3" fill="#0984e3" fill-opacity="0.4"/><rect x="310" y="126" width="23.045323844231156" height="4" rx="2" fill="#0984e3" fill-opacity="0.2"/><rect x="300" y="210" width="110" height="80" rx="8" fill="#0984e3" fill-opacity="0.15179062401768412" stroke="#0984e3" stroke-width="1" stroke-opacity="0.25"/><rect x="310" y="220" width="58.29155043791996" height="6" rx="3" fill="#0984e3" fill-opacity="0.4"/><rect x="310" y="236" width="73.12430222118692" height="4" rx="2" fill="#0984e3" fill-opacity="0.2"/><rect x="300" y="320" width="110" height="80" rx="8" fill="#0984e3" fill-opacity="0.16973628413470684" stroke="#0984e3" stroke-width="1" stroke-opacity="0.25"/><rect x="310" y="330" width="59.668406846046054" height="6" rx="3" fill="#0984e3" fill-opacity="0.4"/><rect x="310" y="346" width="47.192581632487695" height="4" rx="2" fill="#0984e3" fill-opacity="0.2"/><rect x="440" y="100" width="110" height="80" rx="8" fill="#0984e3" fill-opacity="0.1313114962849337" stroke="#0984e3" stroke-width="1" stroke-opacity="0.25"/><rect x="450" y="110" width="69.23987306321382" height="6" rx="3" fill="#0984e3" fill-opacity="0.4"/><rect x="450" y="126" width="40.38450199688114" height="4" rx="2" fill="#0984e3" fill-opacity="0.2"/><rect x="440" y="210" width="110" height="80" rx="8" fill="#0984e3" fill-opacity="0.18455612520660608" stroke="#0984e3" stroke-width="1" stroke-opacity="0.25"/><rect x="450" y="220" width="63.58282277976693" height="6" rx="3" fill="#0984e3" fill-opacity="0.4"/><rect x="450" y="236" width="36.768473055651576" height="4" rx="2" fill="#0984e3" fill-opacity="0.2"/><rect x="440" y="320" width="110" height="80" rx="8" fill="#0984e3" fill-opacity="0.1590881265260986" stroke="#0984e3" stroke-width="1" stroke-opacity="0.25"/><rect x="450" y="330" width="46.29030249732473" height="6" rx="3" fill="#0984e3" fill-opacity="0.4"/><rect x="450" y="346" width="46.30800177609635" height="4" rx="2" fill="#0984e3" fill-opacity="0.2"/><rect x="580" y="100" width="110" height="80" rx="8" fill="#0984e3" fill-opacity="0.20187112258355097" stroke="#0984e3" stroke-width="1" stroke-opacity="0.25"/><rect x="590" y="110" width="69.63471126826926" height="6" rx="3" fill="#0984e3" fill-opacity="0.4"/><rect x="590" y="126" width="32.42910218735933" height="4" rx="2" fill="#0984e3" fill-opacity="0.2"/><rect x="580" y="210" width="110" height="80" rx="8" fill="#0984e3" fill-opacity="0.1376141935272433" stroke="#0984e3" stroke-width="1" stroke-opacity="0.25"/><rect x="590" y="220" width="46.413651427459385" height="6" rx="3" fill="#0984e3" fill-opacity="0.4"/><rect x="590" y="236" width="32.973839284538805" height="4" rx="2" fill="#0984e3" fill-opacity="0.2"/><rect x="580" y="320" width="110" height="80" rx="8" fill="#0984e3" fill-opacity="0.20366709688686646" stroke="#0984e3" stroke-width="1" stroke-opacity="0.25"/><rect x="590" y="330" width="57.24221496283474" height="6" rx="3" fill="#0984e3" fill-opacity="0.4"/><rect x="590" y="346" width="75.608496661296" height="4" rx="2" fill="#0984e3" fill-opacity="0.2"/>

  <!-- Bottom fade -->
  <rect width="800" height="450" fill="url(#fadewebsites)"/>

  <!-- Accent bar -->
  <rect x="0" y="430" width="800" height="4" fill="#0984e3" fill-opacity="0.8"/>

  <!-- Dot grid background -->
  <circle cx="35" cy="32" r="1.5" fill="#0984e3" fill-opacity="0.06"/><circle cx="35" cy="97" r="1.5" fill="#0984e3" fill-opacity="0.06"/><circle cx="35" cy="162" r="1.5" fill="#0984e3" fill-opacity="0.06"/><circle cx="35" cy="227" r="1.5" fill="#0984e3" fill-opacity="0.06"/><circle cx="35" cy="292" r="1.5" fill="#0984e3" fill-opacity="0.06"/><circle cx="35" cy="357" r="1.5" fill="#0984e3" fill-opacity="0.06"/><circle cx="35" cy="422" r="1.5" fill="#0984e3" fill-opacity="0.06"/><circle cx="105" cy="32" r="1.5" fill="#0984e3" fill-opacity="0.06"/><circle cx="105" cy="97" r="1.5" fill="#0984e3" fill-opacity="0.06"/><circle cx="105" cy="162" r="1.5" fill="#0984e3" fill-opacity="0.06"/><circle cx="105" cy="227" r="1.5" fill="#0984e3" fill-opacity="0.06"/><circle cx="105" cy="292" r="1.5" fill="#0984e3" fill-opacity="0.06"/><circle cx="105" cy="357" r="1.5" fill="#0984e3" fill-opacity="0.06"/><circle cx="105" cy="422" r="1.5" fill="#0984e3" fill-opacity="0.06"/><circle cx="175" cy="32" r="1.5" fill="#0984e3" fill-opacity="0.06"/><circle cx="175" cy="97" r="1.5" fill="#0984e3" fill-opacity="0.06"/><circle cx="175" cy="162" r="1.5" fill="#0984e3" fill-opacity="0.06"/><circle cx="175" cy="227" r="1.5" fill="#0984e3" fill-opacity="0.06"/><circle cx="175" cy="292" r="1.5" fill="#0984e3" fill-opacity="0.06"/><circle cx="175" cy="357" r="1.5" fill="#0984e3" fill-opacity="0.06"/><circle cx="175" cy="422" r="1.5" fill="#0984e3" fill-opacity="0.06"/><circle cx="245" cy="32" r="1.5" fill="#0984e3" fill-opacity="0.06"/><circle cx="245" cy="97" r="1.5" fill="#0984e3" fill-opacity="0.06"/><circle cx="245" cy="162" r="1.5" fill="#0984e3" fill-opacity="0.06"/><circle cx="245" cy="227" r="1.5" fill="#0984e3" fill-opacity="0.06"/><circle cx="245" cy="292" r="1.5" fill="#0984e3" fill-opacity="0.06"/><circle cx="245" cy="357" r="1.5" fill="#0984e3" fill-opacity="0.06"/><circle cx="245" cy="422" r="1.5" fill="#0984e3" fill-opacity="0.06"/><circle cx="315" cy="32" r="1.5" fill="#0984e3" fill-opacity="0.06"/><circle cx="315" cy="97" r="1.5" fill="#0984e3" fill-opacity="0.06"/><circle cx="315" cy="162" r="1.5" fill="#0984e3" fill-opacity="0.06"/><circle cx="315" cy="227" r="1.5" fill="#0984e3" fill-opacity="0.06"/><circle cx="315" cy="292" r="1.5" fill="#0984e3" fill-opacity="0.06"/><circle cx="315" cy="357" r="1.5" fill="#0984e3" fill-opacity="0.06"/><circle cx="315" cy="422" r="1.5" fill="#0984e3" fill-opacity="0.06"/><circle cx="385" cy="32" r="1.5" fill="#0984e3" fill-opacity="0.06"/><circle cx="385" cy="97" r="1.5" fill="#0984e3" fill-opacity="0.06"/><circle cx="385" cy="162" r="1.5" fill="#0984e3" fill-opacity="0.06"/><circle cx="385" cy="227" r="1.5" fill="#0984e3" fill-opacity="0.06"/><circle cx="385" cy="292" r="1.5" fill="#0984e3" fill-opacity="0.06"/><circle cx="385" cy="357" r="1.5" fill="#0984e3" fill-opacity="0.06"/><circle cx="385" cy="422" r="1.5" fill="#0984e3" fill-opacity="0.06"/><circle cx="455" cy="32" r="1.5" fill="#0984e3" fill-opacity="0.06"/><circle cx="455" cy="97" r="1.5" fill="#0984e3" fill-opacity="0.06"/><circle cx="455" cy="162" r="1.5" fill="#0984e3" fill-opacity="0.06"/><circle cx="455" cy="227" r="1.5" fill="#0984e3" fill-opacity="0.06"/><circle cx="455" cy="292" r="1.5" fill="#0984e3" fill-opacity="0.06"/><circle cx="455" cy="357" r="1.5" fill="#0984e3" fill-opacity="0.06"/><circle cx="455" cy="422" r="1.5" fill="#0984e3" fill-opacity="0.06"/><circle cx="525" cy="32" r="1.5" fill="#0984e3" fill-opacity="0.06"/><circle cx="525" cy="97" r="1.5" fill="#0984e3" fill-opacity="0.06"/><circle cx="525" cy="162" r="1.5" fill="#0984e3" fill-opacity="0.06"/><circle cx="525" cy="227" r="1.5" fill="#0984e3" fill-opacity="0.06"/><circle cx="525" cy="292" r="1.5" fill="#0984e3" fill-opacity="0.06"/><circle cx="525" cy="357" r="1.5" fill="#0984e3" fill-opacity="0.06"/><circle cx="525" cy="422" r="1.5" fill="#0984e3" fill-opacity="0.06"/><circle cx="595" cy="32" r="1.5" fill="#0984e3" fill-opacity="0.06"/><circle cx="595" cy="97" r="1.5" fill="#0984e3" fill-opacity="0.06"/><circle cx="595" cy="162" r="1.5" fill="#0984e3" fill-opacity="0.06"/><circle cx="595" cy="227" r="1.5" fill="#0984e3" fill-opacity="0.06"/><circle cx="595" cy="292" r="1.5" fill="#0984e3" fill-opacity="0.06"/><circle cx="595" cy="357" r="1.5" fill="#0984e3" fill-opacity="0.06"/><circle cx="595" cy="422" r="1.5" fill="#0984e3" fill-opacity="0.06"/><circle cx="665" cy="32" r="1.5" fill="#0984e3" fill-opacity="0.06"/><circle cx="665" cy="97" r="1.5" fill="#0984e3" fill-opacity="0.06"/><circle cx="665" cy="162" r="1.5" fill="#0984e3" fill-opacity="0.06"/><circle cx="665" cy="227" r="1.5" fill="#0984e3" fill-opacity="0.06"/><circle cx="665" cy="292" r="1.5" fill="#0984e3" fill-opacity="0.06"/><circle cx="665" cy="357" r="1.5" fill="#0984e3" fill-opacity="0.06"/><circle cx="665" cy="422" r="1.5" fill="#0984e3" fill-opacity="0.06"/><circle cx="735" cy="32" r="1.5" fill="#0984e3" fill-opacity="0.06"/><circle cx="735" cy="97" r="1.5" fill="#0984e3" fill-opacity="0.06"/><circle cx="735" cy="162" r="1.5" fill="#0984e3" fill-opacity="0.06"/><circle cx="735" cy="227" r="1.5" fill="#0984e3" fill-opacity="0.06"/><circle cx="735" cy="292" r="1.5" fill="#0984e3" fill-opacity="0.06"/><circle cx="735" cy="357" r="1.5" fill="#0984e3" fill-opacity="0.06"/><circle cx="735" cy="422" r="1.5" fill="#0984e3" fill-opacity="0.06"/><circle cx="805" cy="32" r="1.5" fill="#0984e3" fill-opacity="0.06"/><circle cx="805" cy="97" r="1.5" fill="#0984e3" fill-opacity="0.06"/><circle cx="805" cy="162" r="1.5" fill="#0984e3" fill-opacity="0.06"/><circle cx="805" cy="227" r="1.5" fill="#0984e3" fill-opacity="0.06"/><circle cx="805" cy="292" r="1.5" fill="#0984e3" fill-opacity="0.06"/><circle cx="805" cy="357" r="1.5" fill="#0984e3" fill-opacity="0.06"/><circle cx="805" cy="422" r="1.5" fill="#0984e3" fill-opacity="0.06"/>

  <!-- Emoji -->
  <text x="60" y="400" font-size="80" font-family="Apple Color Emoji, Segoe UI Emoji, Noto Color Emoji, serif">🖥️</text>

  <!-- Left accent line -->
  <rect x="0" y="0" width="3" height="450" fill="#0984e3" fill-opacity="0.5"/>
</svg>