<svg xmlns="http://www.w3.org/2000/svg" viewBox="0 0 800 450" width="800" height="450">
  <defs>
    <radialGradient id="bgwebsites" cx="75%" cy="25%" r="65%">
      <stop offset="0%" stop-color="#0984e3" stop-opacity="0.35"/>
      <stop offset="100%" stop-color="#010F3B" stop-opacity="0"/>
    </radialGradient>
    <linearGradient id="fadewebsites" x1="0" y1="0" x2="0" y2="1">
      <stop offset="60%" stop-color="#010F3B" stop-opacity="0"/>
      <stop offset="100%" stop-color="#010F3B" stop-opacity="0.9"/>
    </linearGradient>
  </defs>

  <!-- Base -->
  <rect width="800" height="450" fill="#010F3B"/>
  <rect width="800" height="450" fill="url(#bgwebsites)"/>

  <!-- Topic shapes -->
  <rect x="160" y="100" width="110" height="80" rx="8" fill="#0984e3" fill-opacity="0.14929522712606272" stroke="#0984e3" stroke-width="1" stroke-opacity="0.25"/><rect x="170" y="110" width="59.86490995764356" height="6" rx="3" fill="#0984e3" fill-opacity="0.4"/><rect x="170" y="126" width="68.54861245407292" height="4" rx="2" fill="#0984e3" fill-opacity="0.2"/><rect x="160" y="210" width="110" height="80" rx="8" fill="#0984e3" fill-opacity="0.1342497489454881" stroke="#0984e3" stroke-width="1" stroke-opacity="0.25"/><rect x="170" y="220" width="59.07521041649214" height="6" rx="3" fill="#0984e3" fill-opacity="0.4"/><rect x="170" y="236" width="38.42594670891529" height="4" rx="2" fill="#0984e3" fill-opacity="0.2"/><rect x="160" y="320" width="110" height="80" rx="8" fill="#0984e3" fill-opacity="0.1479708915888063" stroke="#0984e3" stroke-width="1" stroke-opacity="0.25"/><rect x="170" y="330" width="75.28655962672687" height="6" rx="3" fill="#0984e3" fill-opacity="0.4"/><rect x="170" y="346" width="36.97065780357773" height="4" rx="2" fill="#0984e3" fill-opacity="0.2"/><rect x="300" y="100" width="110" height="80" rx="8" fill="#0984e3" fill-opacity="0.16053888090327245" stroke="#0984e3" stroke-width="1" stroke-opacity="0.25"/><rect x="310" y="110" width="62.906020827857375" height="6" rx="3" fill="#0984e3" fill-opacity="0.4"/><rect x="310" y="126" width="30.28865959676032" height="4" rx="2" fill="#0984e3" fill-opacity="0.2"/><rect x="300" y="210" width="110" height="80" rx="8" fill="#0984e3" fill-opacity="0.14356501245794892" stroke="#0984e3" stroke-width="1" stroke-opacity="0.25"/><rect x="310" y="220" width="60.4882744823096" height="6" rx="3" fill="#0984e3" fill-opacity="0.4"/><rect x="310" y="236" width="56.68674807422826" height="4" rx="2" fill="#0984e3" fill-opacity="0.2"/><rect x="300" y="320" width="110" height="80" rx="8" fill="#0984e3" fill-opacity="0.153588818199587" stroke="#0984e3" stroke-width="1" stroke-opacity="0.25"/><rect x="310" y="330" width="47.66057477303648" height="6" rx="3" fill="#0984e3" fill-opacity="0.4"/><rect x="310" y="346" width="67.85967583161164" height="4" rx="2" fill="#0984e3" fill-opacity="0.2"/><rect x="440" y="100" width="110" height="80" rx="8" fill="#0984e3" fill-opacity="0.16130931594201364" stroke="#0984e3" stroke-width="1" stroke-opacity="0.25"/><rect x="450" y="110" width="68.04791492308843" height="6" rx="3" fill="#0984e3" fill-opacity="0.4"/><rect x="450" y="126" width="46.454482077276126" height="4" rx="2" fill="#0984e3" fill-opacity="0.2"/><rect x="440" y="210" width="110" height="80" rx="8" fill="#0984e3" fill-opacity="0.17773156064469192" stroke="#0984e3" stroke-width="1" stroke-opacity="0.25"/><rect x="450" y="220" width="54.835103710941304" height="6" rx="3" fill="#0984e3" fill-opacity="0.4"/><rect x="450" y="236" width="51.93276598165987" height="4" rx="2" fill="#0984e3" fill-opacity="0.2"/><rect x="440" y="320" width="110" height="80" rx="8" fill="#0984e3" fill-opacity="0.2114997010003566" stroke="#0984e3" stroke-width="1" stroke-opacity="0.25"/><rect x="450" y="330" width="76.10047588190888" height="6" rx="3" fill="#0984e3" fill-opacity="0.4"/><rect x="450" y="346" width="55.54181292396104" height="4" rx="2" fill="#0984e3" fill-opacity="0.2"/><rect x="580" y="100" width="110" height="80" rx="8" fill="#0984e3" fill-opacity="0.1998349706832107" stroke="#0984e3" stroke-width="1" stroke-opacity="0.25"/><rect x="590" y="110" width="65.31518612214063" height="6" rx="3" fill="#0984e3" fill-opacity="0.4"/><rect x="590" y="126" width="78.52270866944858" height="4" rx="2" fill="#0984e3" fill-opacity="0.2"/><rect x="580" y="210" width="110" height="80" rx="8" fill="#0984e3" fill-opacity="0.12759193044384481" stroke="#0984e3" stroke-width="1" stroke-opacity="0.25"/><rect x="590" y="220" width="47.88344309966168" height="6" rx="3" fill="#0984e3" fill-opacity="0.4"/><rect x="590" y="236" width="64.50968942464894" height="4" rx="2" fill="#0984e3" fill-opacity="0.2"/><rect x="580" y="320" width="110" height="80" rx="8" fill="#0984e3" fill-opacity="0.21186503163958095" stroke="#0984e3" stroke-width="1" stroke-opacity="0.25"/><rect x="590" y="330" width="48.229681894840844" height="6" rx="3" fill="#0984e3" fill-opacity="0.4"/><rect x="590" y="346" width="54.37010742164603" height="4" rx="2" fill="#0984e3" fill-opacity="0.2"/>

  <!-- Bottom fade -->
  <rect width="800" height="450" fill="url(#fadewebsites)"/>

  <!-- Accent bar -->
  <rect x="0" y="430" width="800" height="4" fill="#0984e3" fill-opacity="0.8"/>

  <!-- Dot grid background -->
  <circle cx="35" cy="32" r="1.5" fill="#0984e3" fill-opacity="0.06"/><circle cx="35" cy="97" r="1.5" fill="#0984e3" fill-opacity="0.06"/><circle cx="35" cy="162" r="1.5" fill="#0984e3" fill-opacity="0.06"/><circle cx="35" cy="227" r="1.5" fill="#0984e3" fill-opacity="0.06"/><circle cx="35" cy="292" r="1.5" fill="#0984e3" fill-opacity="0.06"/><circle cx="35" cy="357" r="1.5" fill="#0984e3" fill-opacity="0.06"/><circle cx="35" cy="422" r="1.5" fill="#0984e3" fill-opacity="0.06"/><circle cx="105" cy="32" r="1.5" fill="#0984e3" fill-opacity="0.06"/><circle cx="105" cy="97" r="1.5" fill="#0984e3" fill-opacity="0.06"/><circle cx="105" cy="162" r="1.5" fill="#0984e3" fill-opacity="0.06"/><circle cx="105" cy="227" r="1.5" fill="#0984e3" fill-opacity="0.06"/><circle cx="105" cy="292" r="1.5" fill="#0984e3" fill-opacity="0.06"/><circle cx="105" cy="357" r="1.5" fill="#0984e3" fill-opacity="0.06"/><circle cx="105" cy="422" r="1.5" fill="#0984e3" fill-opacity="0.06"/><circle cx="175" cy="32" r="1.5" fill="#0984e3" fill-opacity="0.06"/><circle cx="175" cy="97" r="1.5" fill="#0984e3" fill-opacity="0.06"/><circle cx="175" cy="162" r="1.5" fill="#0984e3" fill-opacity="0.06"/><circle cx="175" cy="227" r="1.5" fill="#0984e3" fill-opacity="0.06"/><circle cx="175" cy="292" r="1.5" fill="#0984e3" fill-opacity="0.06"/><circle cx="175" cy="357" r="1.5" fill="#0984e3" fill-opacity="0.06"/><circle cx="175" cy="422" r="1.5" fill="#0984e3" fill-opacity="0.06"/><circle cx="245" cy="32" r="1.5" fill="#0984e3" fill-opacity="0.06"/><circle cx="245" cy="97" r="1.5" fill="#0984e3" fill-opacity="0.06"/><circle cx="245" cy="162" r="1.5" fill="#0984e3" fill-opacity="0.06"/><circle cx="245" cy="227" r="1.5" fill="#0984e3" fill-opacity="0.06"/><circle cx="245" cy="292" r="1.5" fill="#0984e3" fill-opacity="0.06"/><circle cx="245" cy="357" r="1.5" fill="#0984e3" fill-opacity="0.06"/><circle cx="245" cy="422" r="1.5" fill="#0984e3" fill-opacity="0.06"/><circle cx="315" cy="32" r="1.5" fill="#0984e3" fill-opacity="0.06"/><circle cx="315" cy="97" r="1.5" fill="#0984e3" fill-opacity="0.06"/><circle cx="315" cy="162" r="1.5" fill="#0984e3" fill-opacity="0.06"/><circle cx="315" cy="227" r="1.5" fill="#0984e3" fill-opacity="0.06"/><circle cx="315" cy="292" r="1.5" fill="#0984e3" fill-opacity="0.06"/><circle cx="315" cy="357" r="1.5" fill="#0984e3" fill-opacity="0.06"/><circle cx="315" cy="422" r="1.5" fill="#0984e3" fill-opacity="0.06"/><circle cx="385" cy="32" r="1.5" fill="#0984e3" fill-opacity="0.06"/><circle cx="385" cy="97" r="1.5" fill="#0984e3" fill-opacity="0.06"/><circle cx="385" cy="162" r="1.5" fill="#0984e3" fill-opacity="0.06"/><circle cx="385" cy="227" r="1.5" fill="#0984e3" fill-opacity="0.06"/><circle cx="385" cy="292" r="1.5" fill="#0984e3" fill-opacity="0.06"/><circle cx="385" cy="357" r="1.5" fill="#0984e3" fill-opacity="0.06"/><circle cx="385" cy="422" r="1.5" fill="#0984e3" fill-opacity="0.06"/><circle cx="455" cy="32" r="1.5" fill="#0984e3" fill-opacity="0.06"/><circle cx="455" cy="97" r="1.5" fill="#0984e3" fill-opacity="0.06"/><circle cx="455" cy="162" r="1.5" fill="#0984e3" fill-opacity="0.06"/><circle cx="455" cy="227" r="1.5" fill="#0984e3" fill-opacity="0.06"/><circle cx="455" cy="292" r="1.5" fill="#0984e3" fill-opacity="0.06"/><circle cx="455" cy="357" r="1.5" fill="#0984e3" fill-opacity="0.06"/><circle cx="455" cy="422" r="1.5" fill="#0984e3" fill-opacity="0.06"/><circle cx="525" cy="32" r="1.5" fill="#0984e3" fill-opacity="0.06"/><circle cx="525" cy="97" r="1.5" fill="#0984e3" fill-opacity="0.06"/><circle cx="525" cy="162" r="1.5" fill="#0984e3" fill-opacity="0.06"/><circle cx="525" cy="227" r="1.5" fill="#0984e3" fill-opacity="0.06"/><circle cx="525" cy="292" r="1.5" fill="#0984e3" fill-opacity="0.06"/><circle cx="525" cy="357" r="1.5" fill="#0984e3" fill-opacity="0.06"/><circle cx="525" cy="422" r="1.5" fill="#0984e3" fill-opacity="0.06"/><circle cx="595" cy="32" r="1.5" fill="#0984e3" fill-opacity="0.06"/><circle cx="595" cy="97" r="1.5" fill="#0984e3" fill-opacity="0.06"/><circle cx="595" cy="162" r="1.5" fill="#0984e3" fill-opacity="0.06"/><circle cx="595" cy="227" r="1.5" fill="#0984e3" fill-opacity="0.06"/><circle cx="595" cy="292" r="1.5" fill="#0984e3" fill-opacity="0.06"/><circle cx="595" cy="357" r="1.5" fill="#0984e3" fill-opacity="0.06"/><circle cx="595" cy="422" r="1.5" fill="#0984e3" fill-opacity="0.06"/><circle cx="665" cy="32" r="1.5" fill="#0984e3" fill-opacity="0.06"/><circle cx="665" cy="97" r="1.5" fill="#0984e3" fill-opacity="0.06"/><circle cx="665" cy="162" r="1.5" fill="#0984e3" fill-opacity="0.06"/><circle cx="665" cy="227" r="1.5" fill="#0984e3" fill-opacity="0.06"/><circle cx="665" cy="292" r="1.5" fill="#0984e3" fill-opacity="0.06"/><circle cx="665" cy="357" r="1.5" fill="#0984e3" fill-opacity="0.06"/><circle cx="665" cy="422" r="1.5" fill="#0984e3" fill-opacity="0.06"/><circle cx="735" cy="32" r="1.5" fill="#0984e3" fill-opacity="0.06"/><circle cx="735" cy="97" r="1.5" fill="#0984e3" fill-opacity="0.06"/><circle cx="735" cy="162" r="1.5" fill="#0984e3" fill-opacity="0.06"/><circle cx="735" cy="227" r="1.5" fill="#0984e3" fill-opacity="0.06"/><circle cx="735" cy="292" r="1.5" fill="#0984e3" fill-opacity="0.06"/><circle cx="735" cy="357" r="1.5" fill="#0984e3" fill-opacity="0.06"/><circle cx="735" cy="422" r="1.5" fill="#0984e3" fill-opacity="0.06"/><circle cx="805" cy="32" r="1.5" fill="#0984e3" fill-opacity="0.06"/><circle cx="805" cy="97" r="1.5" fill="#0984e3" fill-opacity="0.06"/><circle cx="805" cy="162" r="1.5" fill="#0984e3" fill-opacity="0.06"/><circle cx="805" cy="227" r="1.5" fill="#0984e3" fill-opacity="0.06"/><circle cx="805" cy="292" r="1.5" fill="#0984e3" fill-opacity="0.06"/><circle cx="805" cy="357" r="1.5" fill="#0984e3" fill-opacity="0.06"/><circle cx="805" cy="422" r="1.5" fill="#0984e3" fill-opacity="0.06"/>

  <!-- Emoji -->
  <text x="60" y="400" font-size="80" font-family="Apple Color Emoji, Segoe UI Emoji, Noto Color Emoji, serif">🖥️</text>

  <!-- Left accent line -->
  <rect x="0" y="0" width="3" height="450" fill="#0984e3" fill-opacity="0.5"/>
</svg>